<svg xmlns="http://www.w3.org/2000/svg" id="canvas" viewBox="428.184 410.220 1510.318 333.471"><path d="M 508.04,498.75 C 506.71 501.17, 506.92 504.25, 505.11 511.76 C 503.31 519.28, 502.08 524.74, 499.02 536.32 C 495.97 547.91, 494.05 555.53, 489.84 569.69 C 485.63 583.85, 483.05 591.95, 477.98 607.11 C 472.91 622.26, 469.71 630.87, 464.49 645.44 C 459.27 660.02, 456.54 667.74, 451.88 679.98 C 447.23 692.23, 444.84 697.66, 441.22 706.65 C 437.61 715.63, 435.83 719.60, 433.83 724.91 C 431.82 730.22, 431.30 731.40, 431.19 733.21 C 431.09 735.02, 432.23 735.43, 433.30 733.98 C 434.38 732.53, 434.51 731.24, 436.57 725.97 C 438.63 720.69, 440.16 716.63, 443.61 707.58 C 447.07 698.53, 449.31 693.02, 453.84 680.72 C 458.38 668.42, 461.09 660.69, 466.29 646.09 C 471.49 631.49, 474.69 622.88, 479.83 607.73 C 484.97 592.58, 487.63 584.48, 492.00 570.34 C 496.36 556.21, 498.43 548.60, 501.67 537.04 C 504.91 525.48, 506.19 520.03, 508.20 512.55 C 510.21 505.07, 511.75 502.42, 511.72 499.66 C 511.69 496.90, 509.36 496.32, 508.04 498.75" style="stroke: black; fill: black;"/><path d="M 469.57,489.85 C 470.77 488.32, 470.07 485.68, 471.45 481.57 C 472.84 477.46, 473.10 474.54, 476.49 469.29 C 479.87 464.03, 482.11 460.98, 488.36 455.28 C 494.61 449.59, 498.86 446.06, 507.75 440.81 C 516.64 435.57, 522.08 433.20, 532.79 429.06 C 543.50 424.92, 549.99 422.78, 561.31 420.14 C 572.64 417.49, 578.42 416.20, 589.43 415.83 C 600.44 415.46, 606.58 416.26, 616.39 418.29 C 626.20 420.33, 631.48 421.99, 638.49 426.00 C 645.49 430.02, 648.37 432.56, 651.42 438.36 C 654.46 444.16, 654.97 447.59, 653.71 454.99 C 652.45 462.39, 650.28 466.88, 645.12 475.35 C 639.96 483.82, 635.64 488.85, 627.89 497.34 C 620.15 505.82, 614.89 510.53, 606.41 517.76 C 597.93 525.00, 592.59 528.14, 585.49 533.50 C 578.38 538.87, 574.76 540.54, 570.88 544.59 C 566.99 548.63, 565.72 550.53, 566.08 553.74 C 566.43 556.94, 568.31 558.31, 572.65 560.61 C 577.00 562.91, 580.71 563.14, 587.80 565.24 C 594.88 567.34, 599.85 568.23, 608.08 571.10 C 616.31 573.98, 620.97 575.74, 628.96 579.64 C 636.94 583.54, 641.22 585.54, 647.98 590.62 C 654.74 595.70, 658.37 598.65, 662.77 605.04 C 667.18 611.44, 669.07 615.27, 670.01 622.61 C 670.94 629.95, 670.50 633.72, 667.44 641.73 C 664.39 649.74, 661.79 654.18, 654.75 662.67 C 647.71 671.17, 642.71 675.91, 632.23 684.20 C 621.74 692.50, 615.07 696.85, 602.31 704.15 C 589.55 711.44, 581.91 715.02, 568.43 720.67 C 554.95 726.33, 547.80 729.01, 534.93 732.42 C 522.05 735.83, 515.46 736.80, 504.06 737.72 C 492.66 738.64, 486.73 738.25, 477.93 737.02 C 469.12 735.79, 465.11 734.42, 460.01 731.56 C 454.91 728.71, 453.76 726.37, 452.44 722.75 C 451.11 719.13, 451.01 717.67, 453.39 713.46 C 455.77 709.26, 462.91 704.75, 464.34 701.72 C 465.78 698.69, 463.56 696.38, 460.55 698.32 C 457.53 700.25, 451.64 706.21, 449.28 711.38 C 446.91 716.55, 446.88 719.54, 448.70 724.17 C 450.52 728.81, 452.59 731.44, 458.37 734.55 C 464.14 737.67, 468.40 738.65, 477.57 739.74 C 486.75 740.83, 492.68 741.07, 504.25 740.00 C 515.83 738.94, 522.47 737.91, 535.46 734.41 C 548.45 730.92, 555.63 728.21, 569.21 722.52 C 582.78 716.83, 590.45 713.26, 603.34 705.95 C 616.23 698.65, 622.96 694.33, 633.64 686.01 C 644.33 677.69, 649.44 672.99, 656.75 664.35 C 664.06 655.71, 666.90 651.21, 670.19 642.79 C 673.47 634.36, 674.12 630.14, 673.17 622.22 C 672.23 614.30, 670.11 610.04, 665.46 603.20 C 660.81 596.37, 656.92 593.37, 649.92 588.05 C 642.92 582.74, 638.56 580.75, 630.45 576.64 C 622.35 572.52, 617.67 570.62, 609.41 567.47 C 601.15 564.32, 596.09 563.13, 589.15 560.88 C 582.22 558.62, 578.53 557.72, 574.72 556.20 C 570.92 554.68, 570.35 555.06, 570.13 553.27 C 569.91 551.48, 570.16 550.72, 573.61 547.26 C 577.06 543.80, 580.47 541.44, 587.39 535.96 C 594.31 530.48, 599.70 527.21, 608.21 519.86 C 616.71 512.51, 622.05 507.80, 629.94 499.21 C 637.82 490.61, 642.26 485.63, 647.63 476.89 C 653.00 468.15, 655.46 463.50, 656.77 455.50 C 658.08 447.51, 657.55 443.32, 654.19 436.91 C 650.82 430.49, 647.41 427.68, 639.96 423.43 C 632.51 419.18, 627.04 417.69, 616.92 415.67 C 606.80 413.65, 600.58 412.92, 589.34 413.33 C 578.11 413.74, 572.25 415.06, 560.75 417.71 C 549.25 420.36, 542.75 422.48, 531.85 426.58 C 520.95 430.68, 515.43 433.03, 506.25 438.22 C 497.07 443.41, 492.65 446.83, 485.94 452.53 C 479.23 458.22, 476.63 461.23, 472.69 466.70 C 468.76 472.17, 467.72 475.37, 466.27 479.87 C 464.83 484.38, 464.81 487.23, 465.47 489.22 C 466.13 491.22, 468.38 491.38, 469.57 489.85" style="stroke: black; fill: black;"/><path d="M 733.12,610.61 C 734.95 610.43, 736.89 609.29, 737.64 607.41 C 738.39 605.53, 738.16 603.43, 736.86 601.20 C 735.57 598.97, 734.25 596.16, 731.17 596.25 C 728.08 596.34, 726.08 598.23, 721.43 601.65 C 716.77 605.07, 713.90 607.74, 707.88 613.35 C 701.85 618.95, 697.89 622.49, 691.30 629.70 C 684.70 636.90, 680.42 641.44, 674.91 649.37 C 669.40 657.29, 666.90 661.87, 663.76 669.31 C 660.61 676.74, 659.40 680.39, 659.18 686.55 C 658.97 692.70, 659.65 696.08, 662.69 700.10 C 665.73 704.11, 668.67 705.55, 674.38 706.64 C 680.08 707.73, 683.78 707.32, 691.21 705.54 C 698.63 703.75, 703.25 701.82, 711.52 697.72 C 719.79 693.62, 724.54 690.95, 732.58 685.04 C 740.62 679.13, 744.88 675.42, 751.73 668.18 C 758.58 660.94, 761.81 656.36, 766.82 648.84 C 771.84 641.32, 773.87 637.41, 776.79 630.59 C 779.71 623.78, 780.48 620.30, 781.42 614.75 C 782.35 609.20, 782.20 606.77, 781.44 602.84 C 780.68 598.92, 779.51 596.87, 777.61 595.11 C 775.70 593.35, 773.25 593.35, 771.92 594.06 C 770.60 594.76, 769.62 597.20, 770.98 598.61 C 772.33 600.03, 774.13 600.91, 778.70 601.12 C 783.26 601.33, 786.53 601.22, 793.81 599.68 C 801.08 598.14, 805.50 596.67, 815.05 593.44 C 824.60 590.21, 830.34 588.15, 841.54 583.52 C 852.73 578.89, 858.89 576.49, 871.00 570.29 C 883.11 564.09, 889.80 560.03, 902.08 552.52 C 914.36 545.00, 920.84 540.67, 932.40 532.72 C 943.95 524.78, 950.20 520.44, 959.86 512.81 C 969.52 505.18, 974.12 500.92, 980.69 494.58 C 987.26 488.24, 990.44 485.68, 992.71 481.09 C 994.97 476.49, 994.70 473.45, 992.02 471.60 C 989.34 469.74, 986.23 469.77, 979.31 471.81 C 972.38 473.85, 967.33 475.85, 957.40 481.79 C 947.47 487.72, 941.17 492.02, 929.67 501.49 C 918.16 510.95, 911.67 517.03, 899.86 529.11 C 888.06 541.19, 881.16 548.63, 870.64 561.88 C 860.12 575.13, 855.00 582.78, 847.25 595.36 C 839.51 607.93, 836.27 614.16, 831.92 624.75 C 827.57 635.35, 826.16 640.12, 825.52 648.32 C 824.88 656.53, 825.73 660.21, 828.72 665.79 C 831.71 671.36, 834.20 673.64, 840.45 676.20 C 846.71 678.76, 850.91 679.21, 859.99 678.58 C 869.06 677.94, 874.96 676.51, 885.83 673.01 C 896.70 669.52, 902.52 666.35, 914.32 661.10 C 926.13 655.84, 932.94 652.60, 944.84 646.72 C 956.74 640.84, 963.34 637.31, 973.83 631.69 C 984.32 626.07, 989.19 622.86, 997.30 618.60 C 1005.42 614.34, 1010.00 612.64, 1014.42 610.39 C 1018.84 608.14, 1018.54 608.26, 1019.41 607.35 C 1020.27 606.44, 1020.02 605.80, 1018.74 605.82 C 1017.46 605.84, 1017.57 605.40, 1013.01 607.44 C 1008.45 609.48, 1003.99 611.60, 995.92 616.03 C 987.86 620.45, 983.10 623.84, 972.68 629.57 C 962.26 635.29, 955.69 638.79, 943.82 644.65 C 931.96 650.52, 925.11 653.73, 913.34 658.87 C 901.58 664.01, 895.71 667.06, 885.00 670.36 C 874.28 673.65, 868.43 674.83, 859.77 675.36 C 851.12 675.90, 847.38 675.24, 841.73 673.02 C 836.08 670.79, 834.25 669.16, 831.54 664.25 C 828.83 659.35, 827.70 656.25, 828.18 648.51 C 828.66 640.77, 829.80 636.00, 833.94 625.57 C 838.08 615.14, 841.25 608.86, 848.87 596.35 C 856.49 583.83, 861.58 576.18, 872.05 563.00 C 882.52 549.82, 889.41 542.39, 901.21 530.44 C 913.02 518.48, 919.55 512.45, 931.09 503.24 C 942.62 494.02, 949.04 489.93, 958.90 484.35 C 968.75 478.78, 974.12 477.26, 980.37 475.35 C 986.62 473.44, 988.29 474.00, 990.14 474.80 C 991.99 475.60, 991.90 475.80, 989.61 479.36 C 987.32 482.91, 984.94 486.24, 978.70 492.57 C 972.47 498.90, 967.93 503.33, 958.43 511.02 C 948.94 518.71, 942.70 523.06, 931.21 531.01 C 919.73 538.95, 913.24 543.29, 901.00 550.74 C 888.75 558.20, 882.08 562.22, 869.99 568.29 C 857.90 574.36, 851.75 576.70, 840.56 581.10 C 829.37 585.50, 823.55 587.50, 814.05 590.27 C 804.55 593.05, 800.02 594.23, 793.05 594.98 C 786.08 595.73, 783.28 594.43, 779.19 594.04 C 775.10 593.65, 774.29 592.51, 772.58 593.04 C 770.87 593.57, 770.66 595.35, 770.63 596.69 C 770.60 598.03, 771.41 598.22, 772.43 599.74 C 773.46 601.25, 774.81 601.37, 775.74 604.26 C 776.67 607.15, 777.52 609.19, 777.07 614.18 C 776.62 619.18, 776.06 622.66, 773.49 629.24 C 770.92 635.83, 768.99 639.74, 764.21 647.12 C 759.42 654.49, 756.25 659.05, 749.56 666.13 C 742.87 673.21, 738.67 676.84, 730.75 682.53 C 722.84 688.22, 718.09 690.75, 710.00 694.57 C 701.91 698.39, 697.27 700.08, 690.30 701.63 C 683.33 703.18, 680.00 703.17, 675.16 702.34 C 670.32 701.51, 668.54 700.61, 666.12 697.48 C 663.69 694.35, 662.88 692.04, 663.04 686.67 C 663.20 681.30, 664.01 677.71, 666.92 670.63 C 669.83 663.54, 672.20 658.94, 677.59 651.23 C 682.98 643.53, 687.22 639.02, 693.86 632.10 C 700.49 625.18, 704.58 621.73, 710.76 616.64 C 716.95 611.55, 720.38 609.31, 724.78 606.65 C 729.18 603.98, 731.39 604.23, 732.76 603.31 C 734.13 602.40, 732.57 602.08, 731.63 602.06 C 730.70 602.03, 728.72 601.94, 728.09 603.18 C 727.46 604.43, 727.46 606.79, 728.47 608.28 C 729.47 609.76, 731.28 610.78, 733.12 610.61" style="stroke: black; fill: black;"/><path d="M 1064.60,621.19 C 1066.15 620.40, 1067.09 619.02, 1068.01 616.56 C 1068.93 614.10, 1069.66 612.20, 1069.20 608.89 C 1068.73 605.58, 1068.18 602.75, 1065.69 599.99 C 1063.20 597.22, 1061.40 595.88, 1056.75 595.06 C 1052.10 594.24, 1049.31 594.23, 1042.44 595.90 C 1035.57 597.58, 1031.25 599.25, 1022.38 603.44 C 1013.51 607.62, 1007.65 610.62, 998.07 616.83 C 988.49 623.04, 982.94 627.41, 974.49 634.47 C 966.04 641.53, 961.64 645.83, 955.82 652.13 C 949.99 658.43, 947.64 661.12, 945.38 665.96 C 943.11 670.80, 942.53 673.65, 944.50 676.34 C 946.46 679.03, 949.68 679.75, 955.19 679.41 C 960.71 679.07, 964.29 677.73, 972.05 674.62 C 979.81 671.51, 984.51 669.09, 993.98 663.86 C 1003.45 658.63, 1009.38 654.74, 1019.40 648.49 C 1029.41 642.23, 1035.72 637.82, 1044.05 632.57 C 1052.37 627.31, 1056.80 624.67, 1061.02 622.23 C 1065.23 619.78, 1065.07 619.21, 1065.11 620.32 C 1065.16 621.44, 1063.59 623.39, 1061.24 627.81 C 1058.88 632.24, 1056.23 636.26, 1053.34 642.46 C 1050.45 648.65, 1048.21 652.72, 1046.80 658.79 C 1045.39 664.86, 1044.81 668.27, 1046.30 672.80 C 1047.78 677.33, 1049.69 679.36, 1054.21 681.43 C 1058.72 683.49, 1061.96 683.57, 1068.86 683.13 C 1075.77 682.68, 1079.77 681.95, 1088.72 679.21 C 1097.66 676.47, 1103.05 674.19, 1113.57 669.43 C 1124.10 664.67, 1130.25 661.59, 1141.34 655.40 C 1152.44 649.22, 1158.39 645.51, 1169.04 638.51 C 1179.68 631.51, 1185.10 627.27, 1194.57 620.40 C 1204.05 613.53, 1208.73 609.89, 1216.40 604.17 C 1224.07 598.45, 1227.73 595.64, 1232.92 591.81 C 1238.12 587.97, 1240.36 586.92, 1242.38 584.97 C 1244.40 583.02, 1243.04 582.79, 1243.04 582.06 C 1243.05 581.33, 1243.07 581.45, 1242.39 581.33 C 1241.70 581.21, 1241.97 579.97, 1239.62 581.48 C 1237.27 582.99, 1235.63 584.78, 1230.64 588.88 C 1225.66 592.97, 1222.19 596.03, 1214.69 601.94 C 1207.19 607.85, 1202.53 611.52, 1193.14 618.44 C 1183.75 625.37, 1178.36 629.60, 1167.76 636.57 C 1157.16 643.53, 1151.22 647.20, 1140.16 653.26 C 1129.09 659.32, 1122.92 662.34, 1112.44 666.87 C 1101.96 671.40, 1096.52 673.50, 1087.76 675.91 C 1079.00 678.33, 1074.97 678.70, 1068.65 678.94 C 1062.32 679.18, 1059.65 678.61, 1056.13 677.11 C 1052.61 675.60, 1051.89 674.82, 1051.04 671.41 C 1050.19 668.01, 1050.43 665.40, 1051.90 660.08 C 1053.37 654.75, 1055.61 650.84, 1058.39 644.79 C 1061.16 638.74, 1063.94 634.91, 1065.78 629.82 C 1067.63 624.72, 1068.87 621.50, 1067.60 619.33 C 1066.32 617.16, 1064.46 616.84, 1059.41 618.95 C 1054.35 621.07, 1050.65 624.49, 1042.34 629.91 C 1034.04 635.33, 1027.85 639.81, 1017.87 646.05 C 1007.90 652.28, 1001.92 656.10, 992.48 661.08 C 983.03 666.06, 978.19 668.21, 970.65 670.96 C 963.11 673.72, 959.35 674.28, 954.78 674.85 C 950.21 675.42, 949.00 675.24, 947.81 673.81 C 946.63 672.38, 946.78 671.59, 948.85 667.69 C 950.93 663.78, 952.70 660.49, 958.20 654.28 C 963.70 648.08, 968.04 643.66, 976.34 636.67 C 984.63 629.68, 990.17 625.33, 999.67 619.33 C 1009.17 613.32, 1015.09 610.43, 1023.83 606.63 C 1032.57 602.83, 1037.06 601.43, 1043.37 600.33 C 1049.68 599.23, 1052.33 600.24, 1055.39 601.14 C 1058.45 602.04, 1058.06 603.14, 1058.67 604.85 C 1059.29 606.56, 1058.52 607.59, 1058.46 609.69 C 1058.40 611.80, 1058.02 613.22, 1058.37 615.38 C 1058.73 617.55, 1059.00 619.34, 1060.25 620.50 C 1061.49 621.66, 1063.05 621.98, 1064.60 621.19" style="stroke: black; fill: black;"/><path d="M 1134.42,621.09 C 1133.26 621.67, 1132.04 622.36, 1131.87 624.49 C 1131.69 626.62, 1131.69 628.63, 1133.55 631.74 C 1135.40 634.86, 1136.94 636.55, 1141.16 640.05 C 1145.37 643.56, 1148.39 645.72, 1154.60 649.26 C 1160.81 652.81, 1164.33 654.79, 1172.21 657.80 C 1180.08 660.81, 1184.29 662.24, 1193.97 664.31 C 1203.66 666.37, 1209.21 667.17, 1220.65 668.12 C 1232.08 669.07, 1238.58 669.33, 1251.16 669.08 C 1263.75 668.82, 1271.05 668.46, 1283.58 666.84 C 1296.11 665.23, 1302.44 663.74, 1313.79 661.02 C 1325.14 658.30, 1330.62 656.70, 1340.33 653.25 C 1350.05 649.81, 1354.87 647.76, 1362.36 643.79 C 1369.85 639.82, 1373.48 636.84, 1377.78 633.38 C 1382.08 629.92, 1383.66 627.92, 1383.85 626.49 C 1384.05 625.06, 1381.79 624.19, 1378.77 626.21 C 1375.75 628.24, 1373.24 631.62, 1368.75 636.62 C 1364.27 641.63, 1360.84 645.23, 1356.37 651.25 C 1351.89 657.26, 1348.97 661.32, 1346.38 666.70 C 1343.79 672.08, 1342.38 675.03, 1343.43 678.15 C 1344.49 681.28, 1347.10 682.37, 1351.65 682.32 C 1356.20 682.27, 1358.97 681.15, 1366.18 677.90 C 1373.39 674.64, 1378.08 671.68, 1387.71 666.06 C 1397.33 660.44, 1403.21 656.76, 1414.29 649.80 C 1425.38 642.84, 1431.79 638.39, 1443.12 631.25 C 1454.45 624.11, 1460.95 620.13, 1470.94 614.11 C 1480.93 608.09, 1485.70 604.81, 1493.05 601.15 C 1500.40 597.49, 1504.04 596.80, 1507.71 595.80 C 1511.37 594.81, 1511.25 594.55, 1511.38 596.16 C 1511.51 597.78, 1510.45 599.51, 1508.36 603.89 C 1506.27 608.26, 1504.34 611.73, 1500.93 618.03 C 1497.52 624.34, 1494.70 628.44, 1491.32 635.41 C 1487.94 642.39, 1485.95 646.62, 1484.04 652.92 C 1482.13 659.22, 1481.24 662.18, 1481.78 666.90 C 1482.33 671.62, 1483.26 674.27, 1486.76 676.53 C 1490.25 678.79, 1493.67 679.16, 1499.25 678.18 C 1504.83 677.20, 1508.07 675.31, 1514.65 671.62 C 1521.22 667.94, 1525.19 665.27, 1532.13 659.76 C 1539.07 654.25, 1543.38 650.78, 1549.35 644.08 C 1555.32 637.37, 1558.46 633.07, 1561.97 626.22 C 1565.49 619.38, 1566.79 615.63, 1566.91 609.84 C 1567.04 604.04, 1566.15 601.26, 1562.59 597.25 C 1559.04 593.23, 1555.53 591.46, 1549.15 589.75 C 1542.77 588.04, 1537.85 588.18, 1530.70 588.70 C 1523.55 589.21, 1519.60 590.34, 1513.39 592.32 C 1507.18 594.31, 1503.67 595.40, 1499.67 598.63 C 1495.67 601.86, 1493.33 604.69, 1493.40 608.47 C 1493.47 612.25, 1495.64 614.82, 1500.01 617.55 C 1504.39 620.28, 1507.88 621.01, 1515.28 622.11 C 1522.69 623.22, 1527.42 623.37, 1537.04 623.06 C 1546.65 622.75, 1552.38 622.07, 1563.35 620.57 C 1574.32 619.07, 1580.64 617.87, 1591.90 615.57 C 1603.15 613.26, 1609.43 611.52, 1619.63 609.04 C 1629.83 606.56, 1635.05 604.98, 1642.88 603.16 C 1650.71 601.35, 1655.01 600.68, 1658.79 599.94 C 1662.57 599.21, 1662.32 598.08, 1661.80 599.49 C 1661.27 600.90, 1660.11 602.70, 1656.14 606.98 C 1652.17 611.25, 1648.20 614.70, 1641.93 620.88 C 1635.67 627.07, 1631.01 631.03, 1624.81 637.91 C 1618.62 644.78, 1615.12 649.05, 1610.95 655.27 C 1606.77 661.49, 1604.77 664.00, 1603.95 669.02 C 1603.12 674.03, 1603.80 677.25, 1606.82 680.33 C 1609.85 683.41, 1612.91 684.28, 1619.06 684.42 C 1625.21 684.55, 1629.16 683.60, 1637.57 681.01 C 1645.97 678.43, 1650.92 676.31, 1661.09 671.50 C 1671.26 666.69, 1677.26 663.22, 1688.41 656.97 C 1699.55 650.72, 1706.01 646.83, 1716.80 640.25 C 1727.60 633.67, 1733.95 629.36, 1742.40 624.06 C 1750.84 618.75, 1755.15 616.17, 1759.04 613.73 C 1762.92 611.28, 1762.66 610.40, 1761.82 611.82 C 1760.98 613.23, 1759.02 615.37, 1754.82 620.79 C 1750.63 626.22, 1746.35 631.21, 1740.84 638.96 C 1735.34 646.71, 1731.63 651.99, 1727.30 659.55 C 1722.97 667.11, 1720.68 670.79, 1719.19 676.76 C 1717.70 682.74, 1717.25 685.74, 1719.86 689.41 C 1722.48 693.09, 1725.53 694.64, 1732.28 695.13 C 1739.03 695.63, 1743.69 694.50, 1753.62 691.90 C 1763.55 689.30, 1769.48 687.14, 1781.92 682.15 C 1794.35 677.15, 1801.91 673.76, 1815.77 666.94 C 1829.63 660.11, 1837.78 655.46, 1851.23 648.02 C 1864.69 640.59, 1871.68 636.36, 1883.06 629.75 C 1894.44 623.14, 1899.82 619.96, 1908.14 614.97 C 1916.46 609.99, 1919.76 607.87, 1924.66 604.82 C 1929.56 601.77, 1931.02 601.28, 1932.66 599.72 C 1934.29 598.16, 1933.71 597.36, 1932.83 597.00 C 1931.95 596.64, 1930.03 596.43, 1928.25 597.92 C 1926.46 599.41, 1925.19 601.08, 1923.89 604.44 C 1922.59 607.80, 1922.49 610.38, 1921.75 614.71 C 1921.00 619.04, 1920.61 621.40, 1920.18 626.08 C 1919.74 630.75, 1919.44 633.28, 1919.57 638.08 C 1919.69 642.87, 1920.41 645.82, 1920.79 650.05 C 1921.17 654.28, 1921.57 656.11, 1921.47 659.23 C 1921.36 662.35, 1921.42 663.14, 1920.25 665.64 C 1919.08 668.13, 1918.36 669.35, 1915.61 671.69 C 1912.85 674.02, 1910.92 675.12, 1906.48 677.31 C 1902.04 679.51, 1898.99 680.59, 1893.39 682.66 C 1887.79 684.73, 1884.28 685.92, 1878.48 687.66 C 1872.68 689.41, 1869.63 690.23, 1864.41 691.37 C 1859.19 692.52, 1856.20 692.81, 1852.38 693.39 C 1848.56 693.97, 1847.33 693.79, 1845.32 694.28 C 1843.30 694.78, 1843.05 695.39, 1842.31 695.87 C 1841.58 696.35, 1841.91 696.34, 1841.65 696.68 C 1841.39 697.02, 1840.99 697.04, 1841.03 697.58 C 1841.06 698.12, 1840.82 698.67, 1841.81 699.39 C 1842.81 700.12, 1843.65 701.15, 1846.01 701.21 C 1848.37 701.27, 1849.67 700.61, 1853.61 699.68 C 1857.54 698.75, 1860.42 697.99, 1865.69 696.55 C 1870.95 695.11, 1874.04 694.25, 1879.93 692.47 C 1885.82 690.68, 1889.34 689.59, 1895.15 687.63 C 1900.96 685.66, 1904.04 684.81, 1908.96 682.64 C 1913.89 680.47, 1916.27 679.56, 1919.77 676.76 C 1923.27 673.97, 1924.74 672.11, 1926.46 668.66 C 1928.18 665.21, 1928.18 663.38, 1928.36 659.52 C 1928.55 655.67, 1927.88 653.70, 1927.40 649.38 C 1926.93 645.06, 1926.08 642.40, 1925.97 637.91 C 1925.85 633.42, 1926.11 631.18, 1926.83 626.93 C 1927.54 622.69, 1928.21 620.45, 1929.53 616.70 C 1930.85 612.94, 1932.25 611.19, 1933.45 608.16 C 1934.64 605.13, 1935.39 603.83, 1935.49 601.55 C 1935.59 599.26, 1935.03 597.84, 1933.96 596.72 C 1932.89 595.60, 1932.39 594.91, 1930.14 595.94 C 1927.88 596.96, 1927.34 598.48, 1922.67 601.85 C 1918.00 605.23, 1914.93 607.58, 1906.79 612.80 C 1898.65 618.01, 1893.29 621.22, 1881.98 627.92 C 1870.68 634.61, 1863.69 638.85, 1850.27 646.27 C 1836.84 653.70, 1828.70 658.34, 1814.85 665.05 C 1801.00 671.77, 1793.41 675.09, 1781.01 679.85 C 1768.62 684.62, 1762.56 686.57, 1752.86 688.88 C 1743.17 691.19, 1738.48 691.76, 1732.53 691.40 C 1726.58 691.05, 1725.02 689.85, 1723.10 687.12 C 1721.18 684.39, 1721.43 682.90, 1722.94 677.78 C 1724.45 672.65, 1726.40 668.78, 1730.66 661.50 C 1734.92 654.22, 1738.74 649.03, 1744.24 641.38 C 1749.73 633.73, 1754.08 629.04, 1758.14 623.23 C 1762.19 617.41, 1764.65 614.82, 1764.52 612.31 C 1764.39 609.79, 1762.23 608.77, 1757.49 610.63 C 1752.75 612.49, 1749.22 616.11, 1740.83 621.61 C 1732.43 627.11, 1726.23 631.50, 1715.50 638.13 C 1704.78 644.77, 1698.31 648.63, 1687.18 654.77 C 1676.06 660.92, 1670.00 664.30, 1659.87 668.85 C 1649.74 673.40, 1644.69 675.29, 1636.55 677.53 C 1628.41 679.76, 1624.45 680.13, 1619.15 680.03 C 1613.84 679.94, 1612.23 679.12, 1610.02 677.07 C 1607.82 675.02, 1607.30 673.72, 1608.12 669.78 C 1608.94 665.85, 1610.23 663.26, 1614.13 657.39 C 1618.03 651.53, 1621.47 647.15, 1627.62 640.46 C 1633.76 633.76, 1638.49 630.01, 1644.87 623.91 C 1651.26 617.82, 1655.47 614.80, 1659.53 609.97 C 1663.60 605.13, 1665.43 602.56, 1665.21 599.74 C 1664.99 596.92, 1663.04 595.85, 1658.42 595.88 C 1653.79 595.92, 1649.97 597.82, 1642.07 599.91 C 1634.18 602.00, 1629.10 603.73, 1618.96 606.34 C 1608.81 608.94, 1602.56 610.67, 1591.36 612.95 C 1580.17 615.22, 1573.86 616.38, 1562.98 617.72 C 1552.11 619.05, 1546.37 619.58, 1536.97 619.62 C 1527.58 619.66, 1522.87 619.18, 1515.99 617.90 C 1509.10 616.62, 1506.01 615.11, 1502.57 613.22 C 1499.12 611.33, 1498.71 610.55, 1498.76 608.45 C 1498.80 606.35, 1499.58 605.03, 1502.80 602.71 C 1506.02 600.38, 1509.22 598.72, 1514.87 596.84 C 1520.52 594.96, 1524.42 593.83, 1531.05 593.28 C 1537.69 592.73, 1542.36 592.73, 1548.04 594.09 C 1553.72 595.46, 1556.48 596.98, 1559.46 600.11 C 1562.44 603.24, 1563.08 604.85, 1562.93 609.73 C 1562.77 614.62, 1561.92 618.14, 1558.67 624.54 C 1555.43 630.94, 1552.48 635.26, 1546.71 641.72 C 1540.94 648.17, 1536.65 651.58, 1529.82 656.80 C 1523.00 662.01, 1518.86 664.49, 1512.57 667.79 C 1506.27 671.09, 1502.98 672.41, 1498.36 673.29 C 1493.74 674.17, 1491.81 673.53, 1489.46 672.17 C 1487.12 670.80, 1486.84 670.05, 1486.62 666.46 C 1486.40 662.87, 1486.63 660.04, 1488.36 654.22 C 1490.10 648.40, 1491.95 644.14, 1495.32 637.38 C 1498.69 630.62, 1501.69 626.70, 1505.23 620.40 C 1508.77 614.11, 1511.07 610.97, 1513.04 605.89 C 1515.00 600.82, 1516.26 597.81, 1515.04 595.04 C 1513.82 592.27, 1511.62 591.37, 1506.95 592.05 C 1502.28 592.74, 1499.13 594.50, 1491.67 598.48 C 1484.21 602.47, 1479.61 605.84, 1469.66 612.00 C 1459.70 618.16, 1453.21 622.15, 1441.87 629.28 C 1430.54 636.41, 1424.11 640.85, 1412.96 647.66 C 1401.82 654.47, 1395.84 658.03, 1386.16 663.34 C 1376.49 668.65, 1371.58 671.37, 1364.60 674.23 C 1357.62 677.08, 1354.63 677.05, 1351.27 677.63 C 1347.92 678.21, 1347.90 678.85, 1347.83 677.13 C 1347.76 675.41, 1348.35 673.58, 1350.90 669.05 C 1353.46 664.51, 1356.24 660.20, 1360.62 654.44 C 1365.00 648.68, 1368.39 645.14, 1372.79 640.25 C 1377.19 635.35, 1380.67 633.04, 1382.63 629.99 C 1384.58 626.93, 1384.04 624.97, 1382.56 624.98 C 1381.08 625.00, 1379.55 626.84, 1375.21 630.05 C 1370.86 633.26, 1367.98 636.88, 1360.83 641.03 C 1353.67 645.18, 1348.96 647.27, 1339.44 650.80 C 1329.92 654.34, 1324.46 655.96, 1313.23 658.70 C 1302.00 661.44, 1295.70 662.94, 1283.28 664.53 C 1270.86 666.12, 1263.60 666.46, 1251.12 666.66 C 1238.64 666.85, 1232.18 666.56, 1220.88 665.50 C 1209.58 664.44, 1204.09 663.58, 1194.63 661.36 C 1185.17 659.14, 1181.09 657.62, 1173.58 654.40 C 1166.07 651.18, 1162.66 649.07, 1157.08 645.27 C 1151.50 641.48, 1148.73 639.05, 1145.68 635.44 C 1142.62 631.83, 1143.03 629.70, 1141.79 627.20 C 1140.56 624.71, 1140.35 624.09, 1139.52 622.96 C 1138.70 621.83, 1138.69 621.94, 1137.67 621.56 C 1136.65 621.19, 1135.58 620.50, 1134.42 621.09" style="stroke: black; fill: black;"/></svg>