<svg xmlns="http://www.w3.org/2000/svg" id="canvas" viewBox="727.343 487.776 818.237 221.438"><path d="M 875.14,496.67 C 874.12 495.37, 872.49 494.00, 869.52 494.07 C 866.56 494.14, 865.10 495.17, 860.33 497.02 C 855.56 498.87, 852.39 499.65, 845.68 503.33 C 838.98 507.00, 834.83 509.49, 826.79 515.38 C 818.75 521.28, 814.19 524.94, 805.49 532.82 C 796.79 540.70, 791.66 545.36, 783.30 554.79 C 774.94 564.22, 770.73 569.73, 763.70 579.97 C 756.66 590.21, 753.51 595.85, 748.14 606.01 C 742.78 616.17, 740.29 621.53, 736.87 630.77 C 733.45 640.02, 732.10 644.57, 731.06 652.23 C 730.02 659.89, 730.02 663.26, 731.67 669.09 C 733.32 674.92, 735.17 677.30, 739.31 681.39 C 743.46 685.47, 746.46 687.25, 752.39 689.51 C 758.32 691.77, 761.80 692.33, 768.98 692.67 C 776.15 693.02, 780.18 692.49, 788.27 691.22 C 796.35 689.95, 801.09 689.05, 809.42 686.34 C 817.74 683.63, 822.17 681.76, 829.88 677.68 C 837.59 673.59, 840.93 670.86, 847.97 665.90 C 855.00 660.94, 858.63 658.18, 865.05 652.87 C 871.47 647.55, 874.70 644.69, 880.05 639.32 C 885.41 633.94, 887.79 631.05, 891.81 626.00 C 895.84 620.96, 897.38 618.51, 900.19 614.10 C 903.00 609.69, 904.36 607.83, 905.87 603.96 C 907.38 600.08, 907.85 597.97, 907.72 594.72 C 907.59 591.47, 906.48 588.99, 905.22 587.69 C 903.97 586.40, 902.32 586.87, 901.45 588.24 C 900.59 589.62, 901.15 591.83, 900.91 594.59 C 900.66 597.35, 901.22 598.63, 900.24 602.04 C 899.27 605.45, 898.36 607.34, 896.02 611.63 C 893.69 615.93, 892.28 618.48, 888.56 623.50 C 884.85 628.53, 882.58 631.41, 877.45 636.76 C 872.31 642.12, 869.15 644.98, 862.88 650.28 C 856.61 655.57, 853.00 658.34, 846.09 663.24 C 839.18 668.14, 835.89 670.81, 828.34 674.77 C 820.80 678.73, 816.49 680.50, 808.36 683.05 C 800.24 685.61, 795.55 686.44, 787.72 687.55 C 779.89 688.66, 775.95 689.02, 769.20 688.60 C 762.44 688.18, 759.33 687.49, 753.94 685.45 C 748.54 683.40, 745.96 681.84, 742.21 678.36 C 738.47 674.88, 736.82 673.18, 735.22 668.03 C 733.62 662.89, 733.37 659.89, 734.21 652.63 C 735.05 645.36, 736.21 640.80, 739.43 631.70 C 742.64 622.60, 745.06 617.22, 750.30 607.14 C 755.54 597.06, 758.66 591.44, 765.63 581.29 C 772.59 571.15, 776.77 565.70, 785.11 556.40 C 793.44 547.11, 798.57 542.50, 807.29 534.84 C 816.01 527.17, 820.62 523.59, 828.69 518.07 C 836.77 512.55, 840.95 510.28, 847.64 507.24 C 854.34 504.19, 857.63 503.91, 862.16 502.84 C 866.69 501.77, 867.78 502.34, 870.27 501.88 C 872.77 501.43, 873.67 501.61, 874.64 500.57 C 875.61 499.53, 876.16 497.97, 875.14 496.67" style="stroke: black; fill: black;"/><path d="M 919.35,612.40 C 917.96 613.73, 918.25 616.18, 916.24 620.24 C 914.23 624.30, 912.63 627.00, 909.30 632.69 C 905.97 638.38, 904.05 642.36, 899.60 648.69 C 895.15 655.01, 892.03 658.13, 887.03 664.31 C 882.04 670.49, 878.98 674.21, 874.65 679.59 C 870.31 684.97, 868.10 687.38, 865.35 691.21 C 862.60 695.03, 861.31 696.87, 860.90 698.71 C 860.50 700.56, 861.73 701.40, 863.32 700.42 C 864.90 699.45, 865.90 697.49, 868.82 693.85 C 871.75 690.20, 873.68 687.62, 877.93 682.21 C 882.19 676.79, 885.07 672.98, 890.08 666.77 C 895.10 660.56, 898.34 657.46, 903.01 651.15 C 907.68 644.84, 909.82 640.94, 913.44 635.22 C 917.07 629.50, 919.18 626.88, 921.14 622.56 C 923.10 618.23, 923.58 615.63, 923.22 613.60 C 922.86 611.57, 920.75 611.07, 919.35 612.40" style="stroke: black; fill: black;"/><path d="M 944.72,548.34 C 943.41 548.52, 942.48 548.61, 941.21 550.33 C 939.93 552.05, 938.99 553.73, 938.33 556.92 C 937.68 560.12, 937.89 562.77, 937.94 566.29 C 937.99 569.82, 937.86 571.91, 938.58 574.55 C 939.31 577.18, 940.33 578.52, 941.57 579.48 C 942.81 580.45, 943.63 580.30, 944.80 579.36 C 945.97 578.42, 946.56 577.22, 947.42 574.78 C 948.28 572.34, 948.52 570.44, 949.10 567.16 C 949.68 563.88, 950.22 561.38, 950.32 558.38 C 950.42 555.38, 950.11 553.95, 949.60 552.15 C 949.09 550.36, 948.73 550.18, 947.76 549.41 C 946.78 548.65, 946.03 548.16, 944.72 548.34" style="stroke: black; fill: black;"/><path d="M 1025.48,565.73 C 1024.38 565.50, 1024.31 565.95, 1023.18 566.66 C 1022.04 567.38, 1021.07 566.99, 1019.82 569.30 C 1018.58 571.61, 1018.79 573.52, 1016.94 578.21 C 1015.09 582.91, 1013.73 586.53, 1010.56 592.77 C 1007.40 599.02, 1005.09 602.77, 1001.10 609.44 C 997.12 616.11, 994.80 619.74, 990.63 626.13 C 986.47 632.53, 984.02 635.59, 980.26 641.42 C 976.50 647.25, 974.68 650.34, 971.81 655.28 C 968.94 660.22, 967.77 662.47, 965.91 666.12 C 964.05 669.77, 963.06 671.14, 962.49 673.53 C 961.93 675.92, 962.55 677.06, 963.08 678.08 C 963.61 679.10, 964.63 678.68, 965.15 678.62 C 965.67 678.56, 966.01 677.72, 965.68 677.77 C 965.35 677.82, 963.66 678.49, 963.50 678.87 C 963.34 679.26, 964.06 679.69, 964.88 679.70 C 965.69 679.71, 966.68 679.76, 967.56 678.93 C 968.44 678.09, 968.53 677.61, 969.28 675.53 C 970.03 673.44, 970.00 672.11, 971.32 668.50 C 972.65 664.90, 973.45 662.48, 975.92 657.49 C 978.39 652.50, 980.08 649.42, 983.67 643.57 C 987.26 637.72, 989.66 634.63, 993.86 628.25 C 998.06 621.86, 1000.43 618.24, 1004.66 611.64 C 1008.89 605.04, 1011.32 601.31, 1015.01 595.25 C 1018.70 589.19, 1020.43 585.61, 1023.10 581.32 C 1025.78 577.03, 1027.25 576.03, 1028.38 573.80 C 1029.52 571.57, 1028.74 571.34, 1028.79 570.15 C 1028.85 568.96, 1029.31 568.73, 1028.65 567.84 C 1027.99 566.96, 1026.57 565.97, 1025.48 565.73" style="stroke: black; fill: black;"/><path d="M 964.81,607.34 C 965.72 608.66, 966.81 609.71, 969.74 610.18 C 972.66 610.64, 974.82 609.95, 979.45 609.66 C 984.09 609.37, 987.24 609.16, 992.91 608.72 C 998.58 608.28, 1001.71 608.11, 1007.81 607.47 C 1013.90 606.83, 1017.58 606.25, 1023.40 605.54 C 1029.22 604.83, 1032.53 604.55, 1036.91 603.93 C 1041.29 603.31, 1043.01 603.55, 1045.28 602.44 C 1047.55 601.34, 1047.93 599.59, 1048.27 598.42 C 1048.60 597.25, 1047.88 596.86, 1046.96 596.60 C 1046.04 596.33, 1045.86 596.85, 1043.67 597.09 C 1041.48 597.34, 1040.21 597.18, 1036.01 597.83 C 1031.81 598.47, 1028.41 599.42, 1022.67 600.32 C 1016.94 601.22, 1013.33 601.83, 1007.33 602.33 C 1001.33 602.83, 998.26 602.78, 992.67 602.80 C 987.08 602.81, 983.91 602.61, 979.39 602.40 C 974.87 602.19, 972.90 601.51, 970.06 601.75 C 967.22 601.99, 966.24 602.48, 965.19 603.60 C 964.14 604.72, 963.90 606.03, 964.81 607.34" style="stroke: black; fill: black;"/><path d="M 1115.30,526.60 C 1113.87 527.31, 1113.18 528.47, 1111.74 531.54 C 1110.30 534.62, 1110.04 536.69, 1108.11 541.96 C 1106.17 547.24, 1104.78 550.81, 1102.06 557.94 C 1099.35 565.06, 1097.74 569.47, 1094.51 577.59 C 1091.27 585.72, 1089.51 590.22, 1085.90 598.55 C 1082.28 606.87, 1079.96 611.18, 1076.42 619.21 C 1072.89 627.25, 1071.12 631.68, 1068.24 638.71 C 1065.35 645.75, 1063.90 648.88, 1061.99 654.40 C 1060.07 659.92, 1058.74 662.38, 1058.65 666.32 C 1058.55 670.26, 1059.30 672.43, 1061.52 674.10 C 1063.73 675.78, 1066.23 676.18, 1069.70 674.70 C 1073.17 673.21, 1074.56 671.05, 1078.87 666.68 C 1083.19 662.32, 1085.46 659.04, 1091.27 652.87 C 1097.08 646.70, 1100.70 642.57, 1107.93 635.85 C 1115.16 629.13, 1119.22 625.35, 1127.42 619.25 C 1135.62 613.15, 1140.48 609.99, 1148.94 605.37 C 1157.41 600.75, 1162.36 598.72, 1169.74 596.16 C 1177.11 593.61, 1180.76 592.85, 1185.81 592.59 C 1190.85 592.33, 1192.57 593.15, 1194.96 594.87 C 1197.34 596.59, 1197.38 597.57, 1197.73 601.21 C 1198.08 604.84, 1197.79 607.47, 1196.71 613.04 C 1195.63 618.61, 1194.47 622.47, 1192.34 629.07 C 1190.21 635.67, 1188.55 639.57, 1186.05 646.04 C 1183.55 652.50, 1181.88 655.81, 1179.86 661.38 C 1177.84 666.95, 1177.01 669.68, 1175.94 673.87 C 1174.87 678.07, 1174.51 679.81, 1174.49 682.34 C 1174.47 684.88, 1175.28 685.44, 1175.84 686.55 C 1176.39 687.67, 1176.70 687.68, 1177.26 687.91 C 1177.83 688.15, 1178.15 688.00, 1178.65 687.73 C 1179.14 687.47, 1179.18 687.55, 1179.75 686.58 C 1180.32 685.62, 1181.13 685.23, 1181.50 682.91 C 1181.88 680.60, 1181.05 679.02, 1181.62 675.02 C 1182.19 671.02, 1182.64 668.38, 1184.36 662.91 C 1186.09 657.44, 1187.74 654.12, 1190.23 647.65 C 1192.72 641.18, 1194.52 637.28, 1196.82 630.56 C 1199.12 623.84, 1200.51 620.04, 1201.72 614.03 C 1202.93 608.01, 1203.68 605.10, 1202.88 600.49 C 1202.07 595.88, 1201.16 593.36, 1197.69 590.97 C 1194.23 588.59, 1191.38 588.16, 1185.56 588.56 C 1179.74 588.97, 1176.21 590.15, 1168.60 592.99 C 1160.98 595.83, 1156.09 597.97, 1147.50 602.75 C 1138.92 607.53, 1134.02 610.74, 1125.67 616.88 C 1117.31 623.01, 1113.18 626.80, 1105.72 633.42 C 1098.27 640.05, 1094.48 644.13, 1088.38 650.01 C 1082.29 655.89, 1079.60 659.04, 1075.25 662.83 C 1070.89 666.63, 1068.84 667.37, 1066.61 668.98 C 1064.37 670.60, 1064.53 671.34, 1064.06 670.89 C 1063.60 670.44, 1063.86 669.78, 1064.28 666.74 C 1064.71 663.70, 1064.72 661.05, 1066.19 655.71 C 1067.66 650.37, 1068.96 647.08, 1071.62 640.05 C 1074.27 633.01, 1076.00 628.57, 1079.46 620.53 C 1082.92 612.50, 1085.23 608.18, 1088.92 599.87 C 1092.60 591.56, 1094.43 587.04, 1097.88 578.99 C 1101.33 570.94, 1103.08 566.60, 1106.17 559.63 C 1109.26 552.66, 1110.93 549.24, 1113.32 544.14 C 1115.72 539.04, 1117.03 537.36, 1118.14 534.13 C 1119.25 530.90, 1119.44 529.49, 1118.88 527.98 C 1118.31 526.47, 1116.73 525.88, 1115.30 526.60" style="stroke: black; fill: black;"/><path d="M 1263.85,597.67 C 1262.44 598.02, 1261.46 598.34, 1260.03 600.80 C 1258.59 603.26, 1258.64 605.30, 1256.68 609.98 C 1254.72 614.66, 1252.97 617.92, 1250.22 624.22 C 1247.48 630.52, 1245.68 634.97, 1242.97 641.50 C 1240.25 648.02, 1238.49 650.96, 1236.65 656.85 C 1234.81 662.73, 1233.76 665.87, 1233.77 670.93 C 1233.79 675.99, 1234.31 678.65, 1236.72 682.15 C 1239.14 685.64, 1241.42 686.99, 1245.84 688.42 C 1250.26 689.85, 1253.24 689.98, 1258.83 689.28 C 1264.41 688.59, 1267.62 687.53, 1273.77 684.95 C 1279.92 682.37, 1283.14 680.63, 1289.59 676.38 C 1296.03 672.12, 1299.28 669.32, 1305.99 663.69 C 1312.70 658.06, 1316.25 654.71, 1323.14 648.21 C 1330.02 641.72, 1333.87 637.98, 1340.43 631.24 C 1346.99 624.49, 1350.44 620.22, 1355.94 614.50 C 1361.43 608.77, 1364.84 606.09, 1367.91 602.61 C 1370.97 599.13, 1371.62 597.80, 1371.26 597.09 C 1370.91 596.38, 1368.71 596.31, 1366.15 599.07 C 1363.59 601.84, 1362.03 605.12, 1358.46 610.92 C 1354.90 616.71, 1352.27 621.03, 1348.33 628.05 C 1344.39 635.08, 1342.01 639.19, 1338.77 646.04 C 1335.52 652.89, 1334.08 656.20, 1332.09 662.28 C 1330.11 668.37, 1329.28 671.33, 1328.85 676.47 C 1328.42 681.62, 1328.35 684.23, 1329.96 688.01 C 1331.58 691.78, 1333.84 693.42, 1336.94 695.35 C 1340.04 697.29, 1342.46 697.73, 1345.47 697.68 C 1348.48 697.63, 1350.76 696.44, 1351.99 695.09 C 1353.21 693.74, 1352.76 692.04, 1351.58 690.92 C 1350.41 689.80, 1348.32 689.94, 1346.10 689.48 C 1343.88 689.02, 1342.61 689.45, 1340.48 688.63 C 1338.35 687.81, 1336.79 687.74, 1335.45 685.37 C 1334.12 683.00, 1333.66 681.13, 1333.80 676.76 C 1333.94 672.40, 1334.42 669.34, 1336.14 663.55 C 1337.86 657.75, 1339.19 654.43, 1342.41 647.79 C 1345.64 641.15, 1348.15 637.14, 1352.25 630.33 C 1356.35 623.52, 1359.21 619.38, 1362.92 613.75 C 1366.62 608.12, 1369.12 605.67, 1370.76 602.17 C 1372.40 598.67, 1372.34 596.83, 1371.13 596.27 C 1369.91 595.71, 1368.25 596.22, 1364.67 599.36 C 1361.09 602.50, 1358.54 606.06, 1353.23 611.99 C 1347.91 617.91, 1344.57 622.23, 1338.11 629.01 C 1331.66 635.79, 1327.81 639.48, 1320.95 645.88 C 1314.09 652.29, 1310.49 655.59, 1303.80 661.03 C 1297.10 666.47, 1293.82 669.15, 1287.47 673.06 C 1281.12 676.98, 1277.90 678.46, 1272.06 680.62 C 1266.21 682.78, 1263.13 683.43, 1258.24 683.88 C 1253.34 684.33, 1250.94 683.88, 1247.56 682.89 C 1244.18 681.89, 1243.08 681.29, 1241.34 678.89 C 1239.60 676.49, 1238.91 675.03, 1238.86 670.90 C 1238.81 666.76, 1239.42 663.73, 1241.09 658.22 C 1242.77 652.70, 1244.46 649.68, 1247.25 643.33 C 1250.04 636.98, 1251.98 632.58, 1255.04 626.47 C 1258.10 620.37, 1260.08 617.29, 1262.55 612.81 C 1265.02 608.34, 1266.46 606.84, 1267.37 604.09 C 1268.27 601.34, 1267.78 600.35, 1267.07 599.06 C 1266.37 597.78, 1265.26 597.32, 1263.85 597.67" style="stroke: black; fill: black;"/><path d="M 1488.74,491.46 C 1487.24 492.83, 1486.95 495.27, 1484.99 499.75 C 1483.02 504.23, 1481.94 507.19, 1478.92 513.86 C 1475.91 520.53, 1474.01 524.82, 1469.92 533.09 C 1465.83 541.35, 1463.42 546.09, 1458.48 555.20 C 1453.53 564.32, 1450.87 569.35, 1445.20 578.66 C 1439.53 587.98, 1435.97 592.84, 1430.11 601.76 C 1424.26 610.69, 1421.12 615.49, 1415.91 623.30 C 1410.71 631.11, 1408.22 635.06, 1404.10 640.83 C 1399.97 646.60, 1397.71 648.51, 1395.28 652.15 C 1392.85 655.78, 1391.83 657.03, 1391.97 659.00 C 1392.10 660.97, 1393.89 662.42, 1395.95 661.98 C 1398.01 661.53, 1399.18 660.00, 1402.27 656.78 C 1405.35 653.56, 1406.56 650.75, 1411.36 645.86 C 1416.17 640.97, 1419.30 637.81, 1426.29 632.33 C 1433.28 626.85, 1437.54 623.47, 1446.32 618.48 C 1455.10 613.49, 1460.55 611.02, 1470.20 607.38 C 1479.85 603.74, 1485.71 602.19, 1494.55 600.28 C 1503.40 598.38, 1507.60 597.77, 1514.42 597.84 C 1521.24 597.90, 1524.35 598.82, 1528.65 600.61 C 1532.95 602.41, 1534.14 603.75, 1535.90 606.82 C 1537.66 609.89, 1537.86 611.63, 1537.47 615.96 C 1537.07 620.29, 1536.67 623.05, 1533.94 628.48 C 1531.22 633.91, 1529.25 637.28, 1523.85 643.12 C 1518.45 648.96, 1514.76 652.05, 1506.95 657.67 C 1499.13 663.29, 1494.10 666.21, 1484.76 671.23 C 1475.43 676.25, 1470.22 678.56, 1460.29 682.75 C 1450.36 686.94, 1444.94 688.98, 1435.11 692.18 C 1425.28 695.37, 1419.69 696.82, 1411.13 698.73 C 1402.57 700.64, 1398.62 701.23, 1392.31 701.71 C 1386.00 702.18, 1383.53 701.48, 1379.59 701.09 C 1375.65 700.70, 1374.61 700.11, 1372.60 699.75 C 1370.60 699.38, 1370.40 699.03, 1369.55 699.28 C 1368.70 699.54, 1368.06 699.99, 1368.36 701.03 C 1368.66 702.07, 1368.87 703.46, 1371.04 704.48 C 1373.22 705.50, 1374.90 705.92, 1379.24 706.11 C 1383.57 706.30, 1386.18 706.31, 1392.70 705.43 C 1399.22 704.56, 1403.18 703.87, 1411.84 701.74 C 1420.49 699.62, 1426.08 698.11, 1435.98 694.81 C 1445.88 691.51, 1451.31 689.45, 1461.34 685.24 C 1471.36 681.03, 1476.61 678.73, 1486.10 673.74 C 1495.59 668.75, 1500.69 665.88, 1508.78 660.28 C 1516.88 654.67, 1520.74 651.66, 1526.57 645.71 C 1532.40 639.77, 1534.76 636.43, 1537.93 630.56 C 1541.11 624.70, 1542.01 621.63, 1542.43 616.38 C 1542.85 611.13, 1542.49 608.25, 1540.05 604.32 C 1537.60 600.39, 1535.33 598.75, 1530.20 596.75 C 1525.08 594.76, 1521.67 594.23, 1514.41 594.34 C 1507.14 594.45, 1502.94 595.23, 1493.89 597.28 C 1484.84 599.34, 1478.98 600.94, 1469.16 604.63 C 1459.35 608.33, 1453.82 610.82, 1444.81 615.77 C 1435.79 620.72, 1431.46 624.10, 1424.08 629.38 C 1416.71 634.66, 1413.28 637.60, 1407.92 642.16 C 1402.56 646.72, 1400.26 648.88, 1397.30 652.16 C 1394.33 655.44, 1393.51 656.93, 1393.09 658.57 C 1392.66 660.20, 1393.93 661.08, 1395.19 660.35 C 1396.45 659.62, 1397.02 658.42, 1399.40 654.91 C 1401.77 651.41, 1403.27 648.83, 1407.08 642.83 C 1410.88 636.84, 1413.34 632.84, 1418.41 624.93 C 1423.47 617.01, 1426.57 612.22, 1432.40 603.25 C 1438.22 594.29, 1441.79 589.41, 1447.52 580.09 C 1453.26 570.76, 1455.97 565.72, 1461.07 556.64 C 1466.18 547.56, 1468.71 542.88, 1473.06 534.70 C 1477.41 526.51, 1479.51 522.31, 1482.82 515.72 C 1486.12 509.13, 1487.66 506.29, 1489.59 501.73 C 1491.53 497.17, 1492.65 494.97, 1492.48 492.92 C 1492.31 490.86, 1490.23 490.10, 1488.74 491.46" style="stroke: black; fill: black;"/></svg>