<svg xmlns="http://www.w3.org/2000/svg" id="canvas" viewBox="384.298 531.660 1735.260 230.931"><path d="M 442.84,539.24 C 442.24 538.23, 441.33 536.92, 438.93 536.00 C 436.53 535.08, 434.60 534.66, 430.83 534.66 C 427.07 534.66, 424.42 534.80, 420.10 535.99 C 415.79 537.18, 413.49 538.39, 409.25 540.61 C 405.01 542.84, 402.46 544.36, 398.89 547.11 C 395.33 549.86, 393.49 551.23, 391.43 554.35 C 389.37 557.47, 388.53 559.42, 388.60 562.70 C 388.67 565.97, 389.40 567.92, 391.78 570.73 C 394.15 573.53, 396.18 574.57, 400.48 576.73 C 404.77 578.89, 407.64 579.62, 413.25 581.53 C 418.87 583.44, 422.29 584.33, 428.56 586.27 C 434.82 588.22, 438.38 589.17, 444.59 591.25 C 450.81 593.32, 454.09 594.35, 459.61 596.65 C 465.13 598.94, 467.94 600.22, 472.21 602.74 C 476.48 605.26, 478.37 606.60, 480.98 609.25 C 483.58 611.90, 484.31 613.28, 485.24 615.99 C 486.17 618.71, 486.19 620.05, 485.62 622.83 C 485.05 625.60, 484.32 626.98, 482.39 629.86 C 480.46 632.75, 479.01 634.37, 475.96 637.25 C 472.91 640.12, 471.07 641.67, 467.14 644.24 C 463.21 646.81, 460.88 648.12, 456.31 650.08 C 451.74 652.04, 449.31 652.86, 444.28 654.04 C 439.25 655.22, 436.39 655.58, 431.18 655.98 C 425.98 656.38, 423.13 656.27, 418.26 656.04 C 413.40 655.80, 410.89 655.48, 406.87 654.83 C 402.86 654.17, 401.02 653.65, 398.21 652.77 C 395.40 651.89, 394.15 651.72, 392.83 650.44 C 391.50 649.16, 391.40 648.65, 391.57 646.37 C 391.74 644.08, 392.48 642.09, 393.69 639.00 C 394.89 635.90, 396.28 633.82, 397.59 630.91 C 398.90 628.01, 400.07 625.98, 400.25 624.47 C 400.43 622.95, 399.81 622.49, 398.48 623.34 C 397.15 624.19, 395.44 625.91, 393.61 628.72 C 391.77 631.52, 390.57 633.84, 389.31 637.37 C 388.06 640.91, 387.11 643.30, 387.33 646.40 C 387.54 649.50, 388.44 650.89, 390.39 652.88 C 392.34 654.87, 393.87 655.32, 397.08 656.34 C 400.28 657.37, 402.21 657.49, 406.42 658.01 C 410.64 658.52, 413.16 658.77, 418.16 658.91 C 423.15 659.05, 426.05 659.14, 431.40 658.70 C 436.75 658.26, 439.69 657.89, 444.90 656.70 C 450.10 655.50, 452.63 654.68, 457.42 652.72 C 462.20 650.75, 464.64 649.45, 468.81 646.87 C 472.98 644.28, 474.95 642.76, 478.28 639.77 C 481.61 636.79, 483.27 635.19, 485.47 631.94 C 487.67 628.69, 488.69 626.94, 489.29 623.52 C 489.89 620.10, 489.72 618.10, 488.47 614.82 C 487.23 611.54, 486.07 609.99, 483.08 607.12 C 480.08 604.26, 478.02 603.02, 473.50 600.50 C 468.98 597.97, 466.13 596.77, 460.50 594.49 C 454.86 592.20, 451.56 591.19, 445.32 589.09 C 439.07 586.99, 435.51 586.01, 429.28 583.98 C 423.05 581.96, 419.63 580.97, 414.16 578.95 C 408.69 576.94, 405.87 576.01, 401.94 573.90 C 398.01 571.79, 396.44 570.65, 394.51 568.40 C 392.59 566.15, 392.33 565.05, 392.31 562.64 C 392.29 560.23, 392.69 558.91, 394.42 556.35 C 396.16 553.78, 397.69 552.34, 400.97 549.79 C 404.25 547.25, 406.79 545.66, 410.81 543.63 C 414.82 541.61, 417.03 540.56, 421.02 539.67 C 425.01 538.78, 427.41 539.06, 430.76 539.18 C 434.10 539.30, 435.51 539.89, 437.75 540.26 C 439.99 540.64, 440.93 541.25, 441.95 541.05 C 442.97 540.84, 443.45 540.25, 442.84 539.24" style="stroke: black; fill: black;"/><path d="M 505.34,548.35 C 504.73 549.26, 504.24 550.23, 504.18 552.85 C 504.13 555.46, 504.51 557.23, 505.07 561.44 C 505.62 565.64, 506.15 568.42, 506.96 573.88 C 507.76 579.34, 508.22 582.91, 509.09 588.73 C 509.97 594.55, 510.41 597.64, 511.33 603.00 C 512.24 608.36, 512.75 610.84, 513.69 615.51 C 514.63 620.19, 515.06 622.32, 516.04 626.37 C 517.02 630.43, 517.53 632.40, 518.58 635.77 C 519.64 639.14, 520.17 640.79, 521.31 643.24 C 522.44 645.68, 523.24 646.57, 524.25 647.99 C 525.26 649.40, 525.56 649.89, 526.36 650.33 C 527.16 650.76, 527.90 650.46, 528.24 650.17 C 528.59 649.87, 528.35 648.92, 528.08 648.86 C 527.81 648.79, 526.89 649.61, 526.89 649.86 C 526.88 650.11, 527.71 650.32, 528.04 650.12 C 528.36 649.91, 528.58 649.63, 528.50 648.82 C 528.42 648.01, 528.28 647.56, 527.64 646.07 C 527.01 644.57, 526.42 643.65, 525.31 641.34 C 524.21 639.04, 523.35 637.68, 522.10 634.53 C 520.85 631.37, 520.20 629.49, 519.06 625.57 C 517.92 621.65, 517.42 619.54, 516.39 614.94 C 515.37 610.33, 514.85 607.87, 513.93 602.55 C 513.01 597.23, 512.58 594.16, 511.81 588.35 C 511.05 582.53, 510.67 578.94, 510.09 573.48 C 509.51 568.02, 509.24 565.21, 508.92 561.03 C 508.59 556.86, 508.80 555.15, 508.46 552.61 C 508.12 550.07, 507.85 549.19, 507.22 548.33 C 506.59 547.48, 505.94 547.45, 505.34 548.35" style="stroke: black; fill: black;"/><path d="M 482.36,618.49 C 483.28 619.20, 484.39 619.94, 487.16 620.15 C 489.93 620.35, 491.84 619.82, 496.21 619.51 C 500.59 619.19, 503.42 618.98, 509.02 618.58 C 514.63 618.18, 518.11 618.02, 524.24 617.51 C 530.36 617.00, 533.83 616.67, 539.65 616.02 C 545.47 615.37, 548.44 615.01, 553.32 614.28 C 558.21 613.54, 561.98 613.15, 564.06 612.37 C 566.15 611.59, 565.97 610.49, 563.76 610.37 C 561.54 610.26, 557.86 611.17, 552.98 611.79 C 548.10 612.41, 545.16 612.87, 539.37 613.49 C 533.58 614.11, 530.14 614.48, 524.04 614.90 C 517.94 615.31, 514.47 615.37, 508.87 615.55 C 503.27 615.72, 500.39 615.73, 496.06 615.78 C 491.72 615.83, 489.90 615.65, 487.19 615.81 C 484.49 615.97, 483.50 616.05, 482.54 616.59 C 481.57 617.12, 481.44 617.78, 482.36 618.49" style="stroke: black; fill: black;"/><path d="M 604.53,607.10 C 604.26 606.18, 603.49 605.25, 602.00 604.35 C 600.51 603.45, 599.62 602.78, 597.09 602.58 C 594.56 602.39, 592.66 602.28, 589.35 603.37 C 586.04 604.45, 584.10 605.69, 580.53 607.99 C 576.95 610.28, 574.74 611.87, 571.47 614.84 C 568.20 617.81, 566.44 619.66, 564.19 622.82 C 561.94 625.99, 560.88 627.77, 560.23 630.68 C 559.57 633.59, 559.81 635.07, 560.92 637.36 C 562.03 639.65, 563.22 640.84, 565.80 642.12 C 568.37 643.40, 570.17 643.73, 573.79 643.77 C 577.40 643.81, 579.68 643.36, 583.88 642.32 C 588.08 641.28, 590.62 640.51, 594.77 638.56 C 598.93 636.61, 601.08 635.21, 604.66 632.57 C 608.23 629.93, 610.01 628.24, 612.65 625.36 C 615.29 622.48, 616.68 620.85, 617.86 618.17 C 619.04 615.48, 618.82 613.53, 618.55 611.95 C 618.28 610.37, 617.32 609.87, 616.50 610.27 C 615.69 610.66, 614.78 611.71, 614.47 613.93 C 614.16 616.15, 613.94 618.26, 614.96 621.38 C 615.98 624.50, 617.44 626.59, 619.57 629.54 C 621.69 632.48, 622.91 633.91, 625.57 636.11 C 628.22 638.30, 629.86 639.27, 632.83 640.52 C 635.80 641.77, 637.38 642.08, 640.40 642.37 C 643.42 642.66, 645.05 642.53, 647.94 641.96 C 650.83 641.39, 652.56 641.05, 654.87 639.54 C 657.18 638.02, 658.87 635.80, 659.49 634.40 C 660.12 633.00, 659.38 632.34, 658.00 632.54 C 656.63 632.74, 654.81 634.45, 652.61 635.40 C 650.42 636.35, 649.39 636.82, 647.03 637.28 C 644.66 637.74, 643.29 637.89, 640.80 637.71 C 638.30 637.52, 637.02 637.38, 634.55 636.38 C 632.09 635.37, 630.65 634.59, 628.49 632.68 C 626.32 630.77, 625.27 629.45, 623.73 626.81 C 622.18 624.16, 621.64 622.13, 620.76 619.47 C 619.87 616.81, 619.97 615.34, 619.32 613.52 C 618.66 611.70, 618.23 610.78, 617.50 610.36 C 616.76 609.94, 616.39 610.25, 615.62 611.42 C 614.86 612.59, 614.83 613.90, 613.68 616.21 C 612.52 618.51, 612.05 620.20, 609.84 622.93 C 607.62 625.65, 605.92 627.34, 602.61 629.83 C 599.31 632.32, 597.24 633.64, 593.32 635.38 C 589.40 637.13, 586.92 637.76, 583.03 638.55 C 579.13 639.34, 576.96 639.40, 573.86 639.33 C 570.75 639.26, 569.48 638.90, 567.50 638.20 C 565.51 637.51, 564.62 637.15, 563.95 635.85 C 563.27 634.55, 563.42 633.86, 564.11 631.71 C 564.80 629.56, 565.41 627.90, 567.39 625.09 C 569.37 622.28, 570.95 620.38, 574.00 617.66 C 577.06 614.95, 579.31 613.42, 582.67 611.52 C 586.02 609.61, 587.95 608.89, 590.78 608.12 C 593.62 607.35, 594.92 607.63, 596.84 607.65 C 598.75 607.67, 599.07 607.96, 600.37 608.23 C 601.67 608.49, 602.51 609.20, 603.34 608.97 C 604.17 608.75, 604.80 608.02, 604.53 607.10" style="stroke: black; fill: black;"/><path d="M 668.33,602.40 C 667.82 603.33, 667.70 604.64, 667.89 606.72 C 668.09 608.79, 668.15 610.16, 669.30 612.77 C 670.45 615.39, 671.53 617.20, 673.65 619.77 C 675.76 622.34, 677.27 623.54, 679.89 625.64 C 682.51 627.75, 683.91 628.65, 686.74 630.28 C 689.57 631.92, 691.11 632.71, 694.03 633.82 C 696.94 634.93, 698.39 635.40, 701.31 635.82 C 704.23 636.24, 705.92 636.29, 708.62 635.94 C 711.33 635.60, 712.65 635.26, 714.83 634.11 C 717.00 632.96, 717.89 632.19, 719.51 630.20 C 721.14 628.21, 721.88 626.83, 722.95 624.17 C 724.02 621.51, 724.58 619.70, 724.85 616.89 C 725.12 614.09, 724.86 612.00, 724.31 610.16 C 723.76 608.32, 722.86 607.42, 722.09 607.68 C 721.32 607.94, 720.62 608.91, 720.45 611.44 C 720.28 613.98, 720.73 615.87, 721.26 620.37 C 721.79 624.87, 722.23 628.07, 723.09 633.95 C 723.95 639.83, 724.53 643.25, 725.55 649.79 C 726.57 656.32, 727.23 659.87, 728.18 666.63 C 729.12 673.39, 729.67 676.75, 730.29 683.58 C 730.91 690.41, 731.39 694.12, 731.27 700.79 C 731.14 707.45, 730.79 710.86, 729.66 716.91 C 728.54 722.96, 727.77 725.88, 725.66 731.05 C 723.56 736.21, 722.16 738.75, 719.15 742.72 C 716.14 746.68, 714.32 748.36, 710.61 750.87 C 706.90 753.38, 704.72 754.16, 700.60 755.28 C 696.49 756.39, 694.19 756.67, 690.03 756.46 C 685.87 756.25, 683.55 755.62, 679.80 754.22 C 676.06 752.81, 674.20 751.70, 671.32 749.44 C 668.44 747.18, 667.06 745.78, 665.39 742.91 C 663.73 740.04, 663.15 738.55, 662.99 735.10 C 662.84 731.64, 662.85 729.89, 664.62 725.63 C 666.38 721.38, 668.49 718.45, 671.81 713.81 C 675.13 709.18, 677.75 706.33, 681.20 702.45 C 684.66 698.57, 687.81 696.31, 689.09 694.40 C 690.38 692.49, 689.63 691.65, 687.65 692.90 C 685.66 694.14, 682.83 696.76, 679.19 700.60 C 675.55 704.44, 672.92 707.34, 669.45 712.11 C 665.98 716.89, 663.79 719.86, 661.85 724.48 C 659.90 729.10, 659.63 731.18, 659.73 735.21 C 659.84 739.24, 660.48 741.25, 662.38 744.63 C 664.28 748.01, 665.96 749.60, 669.22 752.13 C 672.48 754.66, 674.55 755.79, 678.68 757.28 C 682.82 758.76, 685.35 759.39, 689.89 759.55 C 694.44 759.72, 696.94 759.38, 701.39 758.09 C 705.85 756.80, 708.20 755.89, 712.16 753.12 C 716.12 750.35, 718.04 748.47, 721.17 744.23 C 724.31 739.99, 725.69 737.30, 727.82 731.91 C 729.95 726.52, 730.70 723.51, 731.81 717.30 C 732.92 711.08, 733.25 707.60, 733.36 700.82 C 733.47 694.04, 732.96 690.29, 732.35 683.39 C 731.74 676.50, 731.18 673.13, 730.29 666.34 C 729.41 659.56, 728.77 656.00, 727.91 649.45 C 727.05 642.90, 726.55 639.48, 725.99 633.60 C 725.44 627.72, 725.34 624.54, 725.12 620.05 C 724.90 615.56, 725.39 613.67, 724.89 611.15 C 724.40 608.64, 723.61 607.72, 722.64 607.47 C 721.67 607.21, 720.80 608.17, 720.03 609.90 C 719.26 611.62, 719.21 613.58, 718.79 616.10 C 718.36 618.62, 718.48 620.20, 717.90 622.49 C 717.33 624.78, 716.91 625.98, 715.91 627.55 C 714.92 629.12, 714.47 629.61, 712.92 630.35 C 711.37 631.09, 710.35 631.12, 708.17 631.25 C 705.98 631.39, 704.51 631.38, 702.00 631.02 C 699.50 630.67, 698.23 630.41, 695.64 629.48 C 693.04 628.54, 691.56 627.85, 689.01 626.37 C 686.46 624.88, 685.14 624.00, 682.89 622.04 C 680.64 620.08, 679.46 618.89, 677.76 616.56 C 676.05 614.23, 675.47 612.59, 674.36 610.40 C 673.26 608.20, 673.03 607.26, 672.25 605.59 C 671.47 603.92, 671.25 602.67, 670.47 602.03 C 669.69 601.40, 668.85 601.46, 668.33 602.40" style="stroke: black; fill: black;"/><path d="M 872.95,544.61 C 872.57 545.96, 872.53 547.56, 873.01 551.08 C 873.48 554.61, 874.21 557.05, 875.33 562.23 C 876.45 567.41, 877.28 570.91, 878.62 576.97 C 879.97 583.03, 880.62 586.34, 882.06 592.51 C 883.50 598.69, 884.31 602.17, 885.82 607.85 C 887.33 613.53, 888.15 616.10, 889.60 620.91 C 891.06 625.72, 891.87 627.92, 893.10 631.89 C 894.33 635.87, 894.81 637.87, 895.75 640.79 C 896.70 643.70, 897.18 644.69, 897.81 646.45 C 898.45 648.21, 898.47 648.81, 898.92 649.58 C 899.37 650.36, 899.85 650.32, 900.06 650.32 C 900.27 650.32, 900.12 649.53, 899.96 649.57 C 899.80 649.62, 899.11 650.29, 899.24 650.56 C 899.38 650.82, 900.16 651.19, 900.65 650.91 C 901.13 650.63, 901.52 650.25, 901.68 649.15 C 901.84 648.05, 901.87 647.33, 901.43 645.40 C 900.99 643.47, 900.56 642.39, 899.48 639.49 C 898.40 636.59, 897.49 634.76, 896.02 630.89 C 894.54 627.01, 893.68 624.85, 892.11 620.11 C 890.54 615.38, 889.69 612.85, 888.15 607.22 C 886.61 601.59, 885.80 598.13, 884.42 591.97 C 883.04 585.81, 882.46 582.49, 881.26 576.42 C 880.06 570.34, 879.37 566.80, 878.42 561.61 C 877.47 556.43, 877.20 553.94, 876.50 550.49 C 875.80 547.04, 875.61 545.53, 874.90 544.36 C 874.19 543.18, 873.33 543.27, 872.95 544.61" style="stroke: black; fill: black;"/><path d="M 846.70,621.12 C 847.35 621.62, 847.88 621.82, 849.74 621.87 C 851.59 621.91, 852.68 621.85, 855.99 621.34 C 859.30 620.84, 861.54 620.15, 866.27 619.34 C 871.00 618.53, 874.25 618.26, 879.64 617.29 C 885.04 616.33, 887.86 615.60, 893.23 614.52 C 898.60 613.44, 901.52 612.95, 906.49 611.90 C 911.46 610.85, 913.83 610.26, 918.08 609.29 C 922.33 608.33, 924.43 608.13, 927.73 607.07 C 931.03 606.02, 932.70 605.30, 934.58 604.03 C 936.46 602.77, 936.79 601.50, 937.11 600.74 C 937.42 599.98, 936.84 599.58, 936.16 600.24 C 935.47 600.91, 934.29 601.78, 933.68 604.07 C 933.07 606.37, 932.80 608.38, 933.09 611.72 C 933.38 615.05, 934.02 617.21, 935.13 620.74 C 936.24 624.27, 936.91 626.34, 938.65 629.37 C 940.40 632.40, 941.59 633.82, 943.86 635.88 C 946.12 637.94, 947.41 638.55, 949.98 639.69 C 952.55 640.83, 953.88 641.20, 956.71 641.60 C 959.54 642.00, 961.15 642.18, 964.13 641.68 C 967.11 641.18, 968.72 640.53, 971.62 639.11 C 974.51 637.70, 975.99 636.74, 978.59 634.62 C 981.19 632.50, 982.56 631.11, 984.62 628.50 C 986.67 625.88, 987.66 623.92, 988.87 621.55 C 990.09 619.17, 990.30 617.77, 990.69 616.63 C 991.07 615.49, 990.73 615.30, 990.79 615.84 C 990.86 616.38, 990.44 617.33, 991.01 619.34 C 991.59 621.34, 992.10 623.25, 993.67 625.87 C 995.25 628.50, 996.65 630.11, 998.90 632.47 C 1001.15 634.82, 1002.44 635.90, 1004.91 637.66 C 1007.39 639.41, 1008.75 640.24, 1011.26 641.25 C 1013.78 642.26, 1015.12 642.63, 1017.50 642.73 C 1019.88 642.82, 1021.12 642.59, 1023.18 641.73 C 1025.24 640.86, 1026.25 640.12, 1027.80 638.39 C 1029.35 636.67, 1029.98 635.48, 1030.94 633.09 C 1031.90 630.71, 1032.13 629.16, 1032.59 626.48 C 1033.05 623.80, 1032.96 622.24, 1033.23 619.72 C 1033.49 617.20, 1033.72 615.81, 1033.91 613.88 C 1034.10 611.95, 1034.16 610.96, 1034.17 610.07 C 1034.19 609.19, 1033.91 609.12, 1033.98 609.46 C 1034.06 609.80, 1034.10 610.36, 1034.55 611.76 C 1035.00 613.16, 1035.30 614.22, 1036.23 616.45 C 1037.15 618.68, 1037.87 620.30, 1039.16 622.90 C 1040.45 625.50, 1041.24 627.15, 1042.68 629.45 C 1044.13 631.75, 1044.93 632.85, 1046.39 634.41 C 1047.86 635.97, 1048.49 636.67, 1050.03 637.24 C 1051.56 637.82, 1052.51 637.82, 1054.08 637.30 C 1055.66 636.78, 1056.44 636.09, 1057.91 634.63 C 1059.38 633.16, 1060.00 632.08, 1061.44 629.97 C 1062.87 627.85, 1063.66 626.34, 1065.09 624.05 C 1066.53 621.76, 1067.29 620.30, 1068.61 618.51 C 1069.94 616.73, 1070.38 615.82, 1071.72 615.12 C 1073.06 614.43, 1073.77 614.51, 1075.32 615.04 C 1076.87 615.57, 1077.71 616.36, 1079.48 617.77 C 1081.26 619.18, 1082.21 620.17, 1084.20 622.11 C 1086.19 624.05, 1087.26 625.24, 1089.44 627.46 C 1091.62 629.69, 1092.72 631.06, 1095.10 633.25 C 1097.48 635.43, 1098.78 636.60, 1101.35 638.40 C 1103.92 640.19, 1105.21 640.98, 1107.95 642.22 C 1110.69 643.46, 1112.20 643.95, 1115.05 644.60 C 1117.90 645.25, 1119.44 645.45, 1122.21 645.46 C 1124.99 645.47, 1126.25 645.22, 1128.93 644.66 C 1131.60 644.11, 1132.97 643.81, 1135.58 642.69 C 1138.20 641.57, 1139.58 640.83, 1142.01 639.05 C 1144.44 637.28, 1145.63 636.01, 1147.73 633.82 C 1149.83 631.63, 1150.91 630.42, 1152.49 628.10 C 1154.08 625.77, 1154.87 624.44, 1155.66 622.19 C 1156.44 619.93, 1156.67 618.73, 1156.43 616.81 C 1156.19 614.89, 1155.68 613.96, 1154.46 612.58 C 1153.25 611.19, 1152.27 610.53, 1150.35 609.88 C 1148.43 609.23, 1147.17 609.10, 1144.87 609.32 C 1142.56 609.54, 1141.11 609.86, 1138.83 611.00 C 1136.54 612.15, 1135.24 613.02, 1133.45 615.04 C 1131.66 617.06, 1130.74 618.45, 1129.89 621.10 C 1129.05 623.76, 1128.83 625.52, 1129.24 628.30 C 1129.66 631.08, 1130.18 632.61, 1131.97 635.00 C 1133.76 637.38, 1135.09 638.53, 1138.20 640.23 C 1141.32 641.93, 1143.40 642.47, 1147.55 643.48 C 1151.70 644.48, 1154.20 644.82, 1158.96 645.26 C 1163.72 645.70, 1166.40 645.71, 1171.37 645.68 C 1176.34 645.64, 1179.03 645.50, 1183.82 645.09 C 1188.62 644.68, 1191.21 644.29, 1195.35 643.61 C 1199.49 642.93, 1201.55 642.51, 1204.51 641.68 C 1207.47 640.85, 1209.09 640.23, 1210.15 639.46 C 1211.20 638.69, 1211.07 638.09, 1209.79 637.84 C 1208.51 637.59, 1206.75 637.73, 1203.75 638.22 C 1200.74 638.71, 1198.80 639.52, 1194.76 640.28 C 1190.72 641.05, 1188.22 641.57, 1183.54 642.04 C 1178.86 642.51, 1176.21 642.63, 1171.37 642.62 C 1166.52 642.60, 1163.88 642.52, 1159.31 641.97 C 1154.74 641.42, 1152.31 640.95, 1148.51 639.85 C 1144.72 638.74, 1142.90 637.98, 1140.33 636.46 C 1137.76 634.94, 1136.94 634.01, 1135.66 632.26 C 1134.37 630.50, 1134.11 629.60, 1133.91 627.69 C 1133.70 625.78, 1133.98 624.54, 1134.64 622.69 C 1135.30 620.85, 1135.93 619.85, 1137.23 618.47 C 1138.53 617.09, 1139.48 616.56, 1141.15 615.80 C 1142.81 615.03, 1143.92 614.91, 1145.54 614.64 C 1147.16 614.37, 1147.99 614.32, 1149.25 614.44 C 1150.51 614.55, 1151.13 614.72, 1151.83 615.23 C 1152.54 615.74, 1152.84 615.98, 1152.76 617.01 C 1152.68 618.03, 1152.32 618.74, 1151.43 620.36 C 1150.54 621.98, 1149.79 623.14, 1148.31 625.12 C 1146.83 627.11, 1145.90 628.32, 1144.03 630.29 C 1142.16 632.25, 1141.04 633.36, 1138.96 634.96 C 1136.87 636.55, 1135.81 637.22, 1133.61 638.24 C 1131.41 639.26, 1130.22 639.56, 1127.95 640.06 C 1125.68 640.55, 1124.62 640.76, 1122.26 640.72 C 1119.89 640.69, 1118.60 640.44, 1116.13 639.87 C 1113.65 639.31, 1112.30 638.95, 1109.87 637.89 C 1107.44 636.84, 1106.31 636.21, 1103.99 634.60 C 1101.67 632.99, 1100.48 631.93, 1098.27 629.84 C 1096.06 627.75, 1095.03 626.45, 1092.96 624.15 C 1090.88 621.86, 1089.99 620.48, 1087.88 618.37 C 1085.78 616.27, 1084.74 615.13, 1082.43 613.63 C 1080.11 612.14, 1078.78 611.35, 1076.33 610.90 C 1073.88 610.45, 1072.45 610.56, 1070.15 611.39 C 1067.86 612.23, 1066.86 613.22, 1064.86 615.07 C 1062.85 616.93, 1061.84 618.34, 1060.13 620.67 C 1058.42 623.01, 1057.56 624.56, 1056.30 626.75 C 1055.04 628.93, 1054.61 630.06, 1053.84 631.58 C 1053.08 633.11, 1052.96 633.77, 1052.48 634.35 C 1052.01 634.94, 1051.98 635.05, 1051.49 634.53 C 1050.99 634.01, 1050.81 633.32, 1050.02 631.78 C 1049.23 630.23, 1048.59 629.08, 1047.52 626.79 C 1046.45 624.51, 1045.79 622.97, 1044.67 620.35 C 1043.54 617.73, 1043.15 615.97, 1041.90 613.71 C 1040.65 611.44, 1039.87 610.34, 1038.42 609.04 C 1036.98 607.74, 1036.09 607.33, 1034.67 607.21 C 1033.26 607.09, 1032.50 607.32, 1031.35 608.43 C 1030.21 609.55, 1029.67 610.65, 1028.94 612.77 C 1028.22 614.89, 1028.11 616.47, 1027.75 619.04 C 1027.38 621.62, 1027.46 623.17, 1027.13 625.64 C 1026.79 628.11, 1026.65 629.41, 1026.08 631.39 C 1025.51 633.37, 1025.20 634.24, 1024.29 635.54 C 1023.38 636.84, 1022.83 637.32, 1021.53 637.90 C 1020.23 638.48, 1019.48 638.61, 1017.80 638.42 C 1016.13 638.24, 1015.13 637.92, 1013.15 636.96 C 1011.17 636.00, 1009.96 635.23, 1007.91 633.63 C 1005.85 632.02, 1004.67 631.14, 1002.89 628.94 C 1001.10 626.74, 1000.47 625.01, 998.99 622.63 C 997.50 620.24, 996.84 618.71, 995.45 616.99 C 994.07 615.28, 993.49 614.56, 992.05 614.05 C 990.62 613.54, 989.84 613.46, 988.29 614.42 C 986.73 615.38, 985.78 616.61, 984.29 618.85 C 982.79 621.09, 982.52 623.20, 980.80 625.64 C 979.08 628.08, 977.93 629.22, 975.68 631.04 C 973.43 632.87, 972.02 633.62, 969.54 634.77 C 967.07 635.93, 965.75 636.36, 963.29 636.80 C 960.84 637.24, 959.58 637.19, 957.27 636.97 C 954.96 636.75, 953.80 636.58, 951.73 635.69 C 949.67 634.80, 948.77 634.23, 946.94 632.53 C 945.10 630.82, 944.00 629.77, 942.55 627.16 C 941.11 624.55, 940.45 622.64, 939.72 619.48 C 938.99 616.32, 939.01 614.31, 938.92 611.37 C 938.84 608.42, 939.36 606.96, 939.29 604.75 C 939.23 602.54, 939.22 601.49, 938.59 600.32 C 937.97 599.15, 937.36 598.88, 936.15 598.92 C 934.95 598.96, 934.49 599.59, 932.56 600.51 C 930.63 601.43, 929.54 602.36, 926.49 603.52 C 923.44 604.68, 921.44 605.16, 917.33 606.29 C 913.21 607.42, 910.82 608.07, 905.90 609.18 C 900.97 610.29, 898.05 610.80, 892.70 611.83 C 887.36 612.85, 884.55 613.55, 879.17 614.32 C 873.78 615.09, 870.55 615.23, 865.78 615.68 C 861.01 616.13, 858.63 616.13, 855.31 616.57 C 851.99 617.01, 850.94 617.33, 849.18 617.88 C 847.41 618.44, 846.98 618.70, 846.48 619.35 C 845.99 619.99, 846.05 620.61, 846.70 621.12" style="stroke: black; fill: black;"/><path d="M 1236.49,627.01 C 1236.30 626.03, 1235.69 625.06, 1234.29 623.78 C 1232.88 622.51, 1231.83 621.73, 1229.45 620.64 C 1227.08 619.55, 1225.37 618.76, 1222.42 618.32 C 1219.47 617.88, 1217.91 618.06, 1214.69 618.45 C 1211.47 618.84, 1209.48 619.13, 1206.31 620.27 C 1203.15 621.41, 1201.25 622.21, 1198.87 624.16 C 1196.48 626.10, 1195.47 627.59, 1194.36 630.00 C 1193.25 632.41, 1192.96 633.80, 1193.33 636.20 C 1193.69 638.61, 1194.35 639.99, 1196.16 642.01 C 1197.98 644.02, 1199.52 645.14, 1202.42 646.28 C 1205.32 647.42, 1207.26 647.58, 1210.68 647.71 C 1214.10 647.85, 1216.02 647.71, 1219.51 646.95 C 1223.00 646.19, 1224.89 645.67, 1228.12 643.93 C 1231.35 642.18, 1233.05 640.96, 1235.66 638.24 C 1238.26 635.53, 1239.45 633.94, 1241.15 630.34 C 1242.86 626.73, 1243.46 624.57, 1244.17 620.24 C 1244.89 615.90, 1244.88 613.37, 1244.74 608.68 C 1244.61 603.98, 1244.15 601.36, 1243.49 596.78 C 1242.84 592.20, 1242.12 589.55, 1241.46 585.76 C 1240.80 581.96, 1240.99 580.27, 1240.19 577.80 C 1239.39 575.32, 1238.49 573.95, 1237.46 573.38 C 1236.43 572.82, 1235.49 573.30, 1235.06 574.98 C 1234.62 576.66, 1234.49 578.35, 1235.27 581.78 C 1236.05 585.22, 1237.33 587.65, 1238.95 592.16 C 1240.56 596.66, 1241.32 599.52, 1243.34 604.31 C 1245.36 609.11, 1246.75 611.71, 1249.04 616.13 C 1251.33 620.55, 1252.54 622.54, 1254.78 626.41 C 1257.02 630.28, 1258.10 632.10, 1260.26 635.48 C 1262.41 638.85, 1263.61 640.46, 1265.55 643.29 C 1267.50 646.12, 1268.38 647.69, 1269.98 649.63 C 1271.57 651.57, 1272.37 652.02, 1273.53 653.01 C 1274.68 653.99, 1275.10 654.39, 1275.75 654.55 C 1276.40 654.70, 1276.74 654.46, 1276.77 653.79 C 1276.80 653.11, 1276.56 652.54, 1275.91 651.17 C 1275.25 649.81, 1274.94 648.99, 1273.51 646.95 C 1272.07 644.90, 1270.82 643.62, 1268.72 640.96 C 1266.62 638.29, 1265.28 636.84, 1263.01 633.63 C 1260.75 630.41, 1259.66 628.64, 1257.39 624.87 C 1255.11 621.10, 1253.88 619.13, 1251.66 614.78 C 1249.44 610.44, 1248.08 607.90, 1246.28 603.14 C 1244.49 598.38, 1243.95 595.47, 1242.68 590.96 C 1241.41 586.45, 1240.86 583.85, 1239.93 580.59 C 1239.00 577.33, 1238.79 575.97, 1238.03 574.66 C 1237.26 573.34, 1236.50 573.17, 1236.10 573.99 C 1235.69 574.82, 1235.66 576.26, 1236.01 578.76 C 1236.36 581.26, 1236.99 582.78, 1237.83 586.48 C 1238.67 590.19, 1239.48 592.83, 1240.21 597.28 C 1240.94 601.74, 1241.36 604.29, 1241.49 608.77 C 1241.61 613.24, 1241.54 615.66, 1240.82 619.65 C 1240.09 623.65, 1239.46 625.57, 1237.88 628.75 C 1236.29 631.92, 1235.22 633.22, 1232.89 635.52 C 1230.56 637.83, 1229.06 638.86, 1226.22 640.29 C 1223.38 641.72, 1221.72 642.15, 1218.67 642.67 C 1215.63 643.20, 1213.87 643.20, 1210.99 642.92 C 1208.12 642.65, 1206.63 642.15, 1204.30 641.31 C 1201.97 640.47, 1200.78 639.87, 1199.34 638.73 C 1197.90 637.58, 1197.34 636.94, 1197.10 635.60 C 1196.86 634.25, 1197.15 633.50, 1198.12 632.00 C 1199.09 630.51, 1199.98 629.56, 1201.94 628.12 C 1203.91 626.69, 1205.29 625.78, 1207.94 624.83 C 1210.60 623.89, 1212.50 623.63, 1215.20 623.41 C 1217.90 623.20, 1219.06 623.24, 1221.46 623.74 C 1223.87 624.25, 1225.12 625.16, 1227.21 625.95 C 1229.31 626.74, 1230.32 627.15, 1231.92 627.69 C 1233.52 628.24, 1234.30 628.81, 1235.21 628.67 C 1236.13 628.53, 1236.67 627.99, 1236.49 627.01" style="stroke: black; fill: black;"/><path d="M 1476.45,620.55 C 1477.34 619.91, 1477.99 619.04, 1479.00 616.77 C 1480.01 614.50, 1480.68 612.62, 1481.50 609.20 C 1482.32 605.78, 1482.72 603.68, 1483.11 599.67 C 1483.49 595.66, 1483.78 593.34, 1483.42 589.14 C 1483.06 584.95, 1482.55 582.67, 1481.32 578.70 C 1480.09 574.73, 1479.41 572.80, 1477.26 569.28 C 1475.11 565.76, 1473.59 564.00, 1470.56 561.10 C 1467.53 558.19, 1465.77 556.78, 1462.12 554.76 C 1458.47 552.74, 1456.33 551.71, 1452.30 550.99 C 1448.27 550.26, 1445.80 550.03, 1441.99 551.15 C 1438.17 552.27, 1436.26 553.39, 1433.22 556.58 C 1430.18 559.77, 1428.82 562.00, 1426.80 567.09 C 1424.79 572.18, 1423.93 575.54, 1423.14 582.03 C 1422.35 588.52, 1422.44 592.50, 1422.86 599.55 C 1423.28 606.60, 1423.94 610.37, 1425.25 617.27 C 1426.56 624.17, 1427.52 627.60, 1429.41 634.04 C 1431.30 640.47, 1432.49 643.63, 1434.70 649.44 C 1436.92 655.24, 1438.25 658.19, 1440.48 663.06 C 1442.71 667.92, 1443.94 670.14, 1445.85 673.75 C 1447.75 677.37, 1448.48 678.99, 1450.00 681.15 C 1451.51 683.31, 1452.49 684.03, 1453.41 684.55 C 1454.32 685.08, 1454.68 684.80, 1454.56 683.78 C 1454.43 682.76, 1453.98 681.76, 1452.78 679.46 C 1451.59 677.15, 1450.57 675.76, 1448.57 672.26 C 1446.57 668.76, 1445.12 666.69, 1442.77 661.96 C 1440.41 657.23, 1439.05 654.33, 1436.78 648.63 C 1434.51 642.92, 1433.31 639.79, 1431.41 633.44 C 1429.51 627.09, 1428.57 623.69, 1427.30 616.89 C 1426.02 610.08, 1425.40 606.34, 1425.05 599.43 C 1424.70 592.52, 1424.69 588.60, 1425.55 582.34 C 1426.41 576.08, 1427.37 572.84, 1429.35 568.13 C 1431.33 563.41, 1432.74 561.48, 1435.45 558.74 C 1438.17 556.01, 1439.67 555.30, 1442.91 554.44 C 1446.15 553.58, 1448.15 553.78, 1451.66 554.45 C 1455.16 555.13, 1457.12 555.99, 1460.42 557.82 C 1463.73 559.65, 1465.40 560.94, 1468.18 563.59 C 1470.96 566.24, 1472.37 567.84, 1474.33 571.06 C 1476.29 574.29, 1476.90 576.05, 1477.99 579.71 C 1479.08 583.38, 1479.57 585.51, 1479.77 589.40 C 1479.98 593.29, 1479.60 595.44, 1479.01 599.16 C 1478.43 602.88, 1477.75 604.76, 1476.85 608.00 C 1475.96 611.25, 1475.01 612.98, 1474.55 615.37 C 1474.10 617.77, 1474.19 618.95, 1474.57 619.99 C 1474.95 621.02, 1475.57 621.20, 1476.45 620.55" style="stroke: black; fill: black;"/><path d="M 1401.76,636.19 C 1402.58 636.45, 1403.11 636.30, 1405.10 635.86 C 1407.09 635.42, 1408.17 634.87, 1411.70 633.98 C 1415.23 633.09, 1417.58 632.32, 1422.75 631.40 C 1427.92 630.47, 1431.26 630.14, 1437.54 629.37 C 1443.81 628.60, 1447.55 628.33, 1454.12 627.54 C 1460.69 626.74, 1464.35 626.22, 1470.39 625.41 C 1476.43 624.59, 1479.45 624.15, 1484.30 623.44 C 1489.14 622.74, 1491.36 622.51, 1494.62 621.89 C 1497.89 621.27, 1499.05 621.09, 1500.61 620.33 C 1502.16 619.57, 1502.41 619.08, 1502.41 618.11 C 1502.41 617.14, 1501.90 616.20, 1500.62 615.48 C 1499.34 614.77, 1498.13 614.40, 1496.01 614.53 C 1493.89 614.65, 1492.45 615.06, 1490.01 616.12 C 1487.57 617.17, 1486.00 618.02, 1483.82 619.80 C 1481.64 621.57, 1480.54 622.77, 1479.11 624.99 C 1477.69 627.21, 1477.01 628.37, 1476.70 630.89 C 1476.39 633.40, 1476.38 635.08, 1477.58 637.57 C 1478.78 640.05, 1480.03 641.60, 1482.72 643.32 C 1485.41 645.05, 1487.33 645.49, 1491.01 646.19 C 1494.69 646.88, 1497.09 647.01, 1501.14 646.81 C 1505.19 646.61, 1507.47 646.17, 1511.25 645.20 C 1515.03 644.23, 1516.88 643.59, 1520.05 641.96 C 1523.22 640.34, 1524.92 639.31, 1527.09 637.08 C 1529.27 634.84, 1530.16 633.38, 1530.94 630.79 C 1531.72 628.19, 1531.66 626.65, 1530.99 624.10 C 1530.32 621.56, 1529.36 620.15, 1527.58 618.07 C 1525.81 615.99, 1524.54 614.92, 1522.13 613.69 C 1519.72 612.47, 1517.99 611.96, 1515.53 611.94 C 1513.07 611.93, 1511.51 612.35, 1509.83 613.60 C 1508.15 614.86, 1507.39 616.08, 1507.12 618.20 C 1506.86 620.32, 1507.05 621.99, 1508.51 624.21 C 1509.97 626.43, 1511.43 627.65, 1514.42 629.32 C 1517.40 630.99, 1519.56 631.61, 1523.42 632.57 C 1527.27 633.54, 1529.64 633.81, 1533.68 634.14 C 1537.72 634.47, 1539.90 634.25, 1543.61 634.21 C 1547.31 634.17, 1549.27 634.03, 1552.19 633.93 C 1555.11 633.84, 1556.33 633.48, 1558.22 633.73 C 1560.10 633.99, 1560.54 634.26, 1561.60 635.22 C 1562.66 636.17, 1562.89 637.03, 1563.51 638.50 C 1564.13 639.97, 1564.16 640.94, 1564.69 642.56 C 1565.23 644.18, 1565.35 645.44, 1566.19 646.60 C 1567.04 647.76, 1567.97 648.43, 1568.90 648.37 C 1569.83 648.32, 1570.58 647.89, 1570.85 646.33 C 1571.11 644.78, 1571.06 643.26, 1570.22 640.61 C 1569.39 637.96, 1568.04 636.16, 1566.66 633.09 C 1565.28 630.02, 1564.52 627.99, 1563.33 625.28 C 1562.13 622.57, 1561.51 621.36, 1560.69 619.55 C 1559.88 617.73, 1559.45 617.16, 1559.25 616.20 C 1559.06 615.24, 1558.91 615.06, 1559.71 614.75 C 1560.51 614.44, 1561.17 614.75, 1563.27 614.66 C 1565.37 614.56, 1566.94 614.46, 1570.19 614.27 C 1573.44 614.09, 1575.53 613.86, 1579.50 613.73 C 1583.48 613.59, 1585.88 613.56, 1590.04 613.59 C 1594.21 613.62, 1596.55 613.69, 1600.34 613.88 C 1604.13 614.07, 1606.21 614.40, 1609.00 614.53 C 1611.79 614.66, 1612.53 614.49, 1614.30 614.54 C 1616.06 614.59, 1617.03 615.02, 1617.82 614.78 C 1618.62 614.54, 1618.85 614.02, 1618.27 613.35 C 1617.69 612.68, 1616.71 612.08, 1614.92 611.42 C 1613.13 610.76, 1612.22 610.35, 1609.33 610.07 C 1606.43 609.78, 1604.31 610.03, 1600.46 609.99 C 1596.61 609.94, 1594.29 609.92, 1590.09 609.84 C 1585.90 609.76, 1583.50 609.71, 1579.49 609.59 C 1575.48 609.47, 1573.44 609.24, 1570.04 609.25 C 1566.65 609.25, 1564.98 609.04, 1562.52 609.62 C 1560.05 610.21, 1559.00 610.86, 1557.71 612.17 C 1556.43 613.48, 1556.32 614.43, 1556.09 616.17 C 1555.87 617.90, 1556.13 618.65, 1556.59 620.85 C 1557.05 623.05, 1557.45 624.28, 1558.39 627.16 C 1559.33 630.05, 1560.14 632.09, 1561.30 635.26 C 1562.45 638.44, 1562.97 640.57, 1564.15 643.02 C 1565.34 645.47, 1566.14 646.50, 1567.23 647.51 C 1568.32 648.51, 1568.88 648.51, 1569.61 648.03 C 1570.34 647.56, 1570.85 646.61, 1570.89 645.15 C 1570.92 643.70, 1570.46 642.51, 1569.78 640.74 C 1569.10 638.96, 1568.64 637.98, 1567.49 636.28 C 1566.33 634.58, 1565.72 633.53, 1564.01 632.25 C 1562.30 630.96, 1561.34 630.38, 1558.95 629.84 C 1556.56 629.29, 1555.15 629.45, 1552.06 629.53 C 1548.97 629.61, 1547.12 630.10, 1543.51 630.24 C 1539.90 630.38, 1537.81 630.59, 1534.03 630.22 C 1530.24 629.86, 1527.99 629.48, 1524.57 628.42 C 1521.16 627.35, 1519.38 626.32, 1516.93 624.90 C 1514.48 623.48, 1513.54 622.61, 1512.31 621.31 C 1511.08 620.01, 1510.89 619.31, 1510.79 618.40 C 1510.69 617.50, 1510.93 617.12, 1511.81 616.78 C 1512.68 616.45, 1513.56 616.44, 1515.14 616.74 C 1516.73 617.05, 1517.98 617.38, 1519.73 618.32 C 1521.49 619.25, 1522.50 620.01, 1523.94 621.42 C 1525.38 622.83, 1526.30 623.74, 1526.93 625.37 C 1527.56 627.00, 1527.70 627.84, 1527.09 629.55 C 1526.48 631.25, 1525.68 632.14, 1523.89 633.90 C 1522.10 635.67, 1520.87 636.87, 1518.14 638.37 C 1515.42 639.87, 1513.71 640.52, 1510.28 641.40 C 1506.85 642.28, 1504.66 642.66, 1500.99 642.76 C 1497.32 642.85, 1495.04 642.59, 1491.92 641.86 C 1488.80 641.13, 1487.46 640.37, 1485.38 639.10 C 1483.31 637.82, 1482.44 637.00, 1481.54 635.48 C 1480.64 633.97, 1480.60 633.04, 1480.89 631.51 C 1481.18 629.98, 1481.75 629.28, 1483.01 627.86 C 1484.27 626.43, 1485.29 625.59, 1487.18 624.39 C 1489.06 623.19, 1490.44 622.67, 1492.43 621.85 C 1494.42 621.04, 1495.57 620.90, 1497.12 620.32 C 1498.68 619.75, 1499.33 619.43, 1500.21 618.97 C 1501.09 618.51, 1501.60 618.30, 1501.53 618.01 C 1501.45 617.73, 1501.37 617.47, 1499.85 617.55 C 1498.33 617.62, 1497.14 617.76, 1493.94 618.40 C 1490.74 619.04, 1488.62 619.83, 1483.84 620.75 C 1479.06 621.68, 1476.05 622.15, 1470.05 623.04 C 1464.05 623.92, 1460.40 624.44, 1453.84 625.19 C 1447.28 625.94, 1443.57 626.18, 1437.26 626.78 C 1430.94 627.38, 1427.59 627.59, 1422.29 628.19 C 1416.98 628.79, 1414.45 629.02, 1410.74 629.79 C 1407.03 630.55, 1405.69 631.05, 1403.74 632.01 C 1401.79 632.96, 1401.38 633.71, 1400.99 634.55 C 1400.59 635.38, 1400.93 635.92, 1401.76 636.19" style="stroke: black; fill: black;"/><path d="M 1748.49,618.86 C 1747.96 619.97, 1747.68 621.44, 1747.86 624.13 C 1748.04 626.82, 1748.67 628.82, 1749.38 632.33 C 1750.10 635.84, 1750.49 638.19, 1751.45 641.67 C 1752.41 645.14, 1752.91 647.08, 1754.18 649.70 C 1755.45 652.33, 1756.17 653.39, 1757.80 654.79 C 1759.42 656.19, 1760.54 656.56, 1762.31 656.70 C 1764.07 656.83, 1764.98 656.52, 1766.62 655.48 C 1768.25 654.45, 1769.04 653.64, 1770.48 651.51 C 1771.93 649.38, 1772.59 647.74, 1773.84 644.82 C 1775.09 641.90, 1775.48 639.85, 1776.74 636.92 C 1778.00 634.00, 1778.88 632.45, 1780.16 630.19 C 1781.44 627.92, 1782.11 626.86, 1783.12 625.60 C 1784.13 624.34, 1784.42 623.97, 1785.22 623.89 C 1786.03 623.80, 1786.25 624.25, 1787.16 625.18 C 1788.06 626.11, 1788.55 626.97, 1789.73 628.55 C 1790.91 630.12, 1791.60 631.15, 1793.04 633.06 C 1794.47 634.96, 1795.23 636.05, 1796.90 638.08 C 1798.57 640.10, 1799.50 641.28, 1801.40 643.18 C 1803.29 645.09, 1804.34 646.23, 1806.38 647.61 C 1808.41 648.99, 1809.47 649.50, 1811.58 650.09 C 1813.68 650.68, 1814.78 650.88, 1816.91 650.55 C 1819.03 650.22, 1820.26 649.72, 1822.19 648.46 C 1824.13 647.21, 1824.89 646.20, 1826.59 644.28 C 1828.29 642.36, 1829.14 641.00, 1830.69 638.85 C 1832.25 636.71, 1833.07 635.32, 1834.36 633.56 C 1835.65 631.80, 1836.15 630.84, 1837.15 630.05 C 1838.14 629.26, 1838.36 629.13, 1839.33 629.61 C 1840.29 630.08, 1840.69 630.95, 1841.97 632.44 C 1843.25 633.92, 1844.06 635.08, 1845.73 637.02 C 1847.40 638.95, 1848.29 640.17, 1850.33 642.11 C 1852.37 644.05, 1853.66 645.18, 1855.92 646.70 C 1858.18 648.22, 1859.21 648.97, 1861.63 649.70 C 1864.06 650.43, 1866.63 650.69, 1868.05 650.36 C 1869.46 650.03, 1869.63 649.03, 1868.69 648.04 C 1867.76 647.05, 1865.35 646.50, 1863.38 645.43 C 1861.40 644.36, 1860.64 644.15, 1858.82 642.71 C 1856.99 641.27, 1856.02 640.12, 1854.26 638.22 C 1852.49 636.31, 1851.75 635.11, 1849.97 633.21 C 1848.20 631.30, 1847.29 630.10, 1845.37 628.68 C 1843.45 627.27, 1842.38 626.53, 1840.37 626.12 C 1838.37 625.70, 1837.33 625.83, 1835.34 626.61 C 1833.34 627.39, 1832.27 628.26, 1830.41 630.03 C 1828.54 631.79, 1827.63 633.26, 1826.02 635.44 C 1824.42 637.62, 1823.71 639.06, 1822.39 640.91 C 1821.06 642.77, 1820.64 643.59, 1819.40 644.69 C 1818.16 645.80, 1817.49 646.14, 1816.18 646.42 C 1814.88 646.69, 1814.25 646.61, 1812.88 646.07 C 1811.50 645.54, 1810.84 645.04, 1809.31 643.72 C 1807.79 642.41, 1806.89 641.31, 1805.24 639.51 C 1803.59 637.71, 1802.61 636.67, 1801.05 634.71 C 1799.50 632.76, 1798.93 631.69, 1797.48 629.74 C 1796.04 627.79, 1795.44 626.57, 1793.84 624.96 C 1792.23 623.35, 1791.24 622.52, 1789.46 621.68 C 1787.67 620.84, 1786.71 620.57, 1784.90 620.76 C 1783.08 620.95, 1782.22 621.28, 1780.40 622.63 C 1778.57 623.97, 1777.43 625.02, 1775.78 627.46 C 1774.12 629.91, 1773.53 631.83, 1772.13 634.86 C 1770.73 637.88, 1770.06 639.80, 1768.79 642.59 C 1767.52 645.37, 1766.73 646.79, 1765.78 648.79 C 1764.83 650.78, 1764.70 651.60, 1764.06 652.58 C 1763.41 653.55, 1763.26 653.71, 1762.54 653.65 C 1761.82 653.60, 1761.25 653.46, 1760.46 652.29 C 1759.67 651.12, 1759.49 650.18, 1758.61 647.80 C 1757.72 645.42, 1756.94 643.69, 1756.05 640.41 C 1755.15 637.12, 1754.81 634.78, 1754.11 631.36 C 1753.41 627.95, 1753.26 625.89, 1752.54 623.33 C 1751.82 620.77, 1751.32 619.47, 1750.51 618.58 C 1749.70 617.68, 1749.02 617.75, 1748.49 618.86" style="stroke: black; fill: black;"/><path d="M 1911.89,624.77 C 1911.60 623.90, 1910.94 622.91, 1909.41 622.31 C 1907.88 621.70, 1906.58 621.26, 1904.23 621.73 C 1901.89 622.21, 1900.00 622.67, 1897.67 624.69 C 1895.34 626.71, 1894.18 628.66, 1892.59 631.82 C 1890.99 634.98, 1890.08 636.98, 1889.70 640.49 C 1889.32 644.00, 1889.45 646.28, 1890.70 649.36 C 1891.94 652.44, 1893.14 653.91, 1895.94 655.91 C 1898.73 657.90, 1900.92 658.58, 1904.67 659.34 C 1908.41 660.10, 1910.72 660.08, 1914.66 659.71 C 1918.61 659.35, 1920.78 658.82, 1924.39 657.50 C 1928.01 656.18, 1929.94 655.33, 1932.74 653.11 C 1935.53 650.90, 1936.85 649.37, 1938.36 646.43 C 1939.87 643.48, 1940.32 641.56, 1940.29 638.39 C 1940.26 635.22, 1939.83 633.36, 1938.19 630.58 C 1936.55 627.80, 1935.07 626.41, 1932.10 624.50 C 1929.12 622.60, 1926.82 621.84, 1923.30 621.05 C 1919.78 620.27, 1917.44 620.24, 1914.50 620.57 C 1911.55 620.90, 1909.70 621.89, 1908.57 622.70 C 1907.43 623.51, 1907.62 624.12, 1908.83 624.61 C 1910.04 625.09, 1911.91 624.93, 1914.60 625.13 C 1917.30 625.33, 1919.29 624.96, 1922.31 625.59 C 1925.33 626.23, 1927.32 626.85, 1929.71 628.31 C 1932.11 629.77, 1933.06 630.88, 1934.29 632.91 C 1935.52 634.93, 1935.81 636.14, 1935.86 638.46 C 1935.90 640.77, 1935.64 642.19, 1934.51 644.49 C 1933.38 646.79, 1932.49 648.08, 1930.20 649.94 C 1927.91 651.81, 1926.22 652.64, 1923.04 653.80 C 1919.87 654.96, 1917.81 655.42, 1914.30 655.73 C 1910.79 656.03, 1908.67 655.98, 1905.49 655.33 C 1902.30 654.67, 1900.51 653.98, 1898.38 652.47 C 1896.24 650.96, 1895.60 650.06, 1894.80 647.79 C 1893.99 645.52, 1893.90 643.83, 1894.36 641.12 C 1894.82 638.41, 1895.68 636.67, 1897.10 634.25 C 1898.52 631.83, 1899.76 630.52, 1901.45 629.01 C 1903.15 627.50, 1904.15 627.23, 1905.55 626.71 C 1906.95 626.20, 1907.40 626.45, 1908.46 626.44 C 1909.53 626.43, 1910.17 626.99, 1910.86 626.65 C 1911.55 626.32, 1912.18 625.63, 1911.89 624.77" style="stroke: black; fill: black;"/><path d="M 1962.71,628.47 C 1962.17 629.21, 1962.05 630.09, 1961.99 631.84 C 1961.93 633.58, 1962.02 634.82, 1962.40 637.19 C 1962.77 639.56, 1963.21 641.09, 1963.85 643.67 C 1964.50 646.25, 1964.69 647.89, 1965.63 650.09 C 1966.57 652.29, 1967.27 653.52, 1968.54 654.67 C 1969.82 655.83, 1970.75 656.31, 1972.00 655.87 C 1973.25 655.43, 1974.18 654.51, 1974.80 652.47 C 1975.42 650.44, 1975.51 648.60, 1975.09 645.68 C 1974.66 642.77, 1973.74 640.86, 1972.68 637.92 C 1971.62 634.97, 1970.98 633.09, 1969.80 630.94 C 1968.63 628.80, 1967.62 628.03, 1966.82 627.19 C 1966.02 626.35, 1965.50 626.52, 1965.82 626.76 C 1966.14 627.00, 1966.57 627.76, 1968.41 628.39 C 1970.25 629.01, 1971.71 629.52, 1975.02 629.89 C 1978.34 630.25, 1980.63 630.05, 1985.00 630.22 C 1989.37 630.39, 1991.90 630.63, 1996.88 630.73 C 2001.86 630.84, 2004.74 630.95, 2009.90 630.77 C 2015.06 630.59, 2018.04 630.29, 2022.69 629.83 C 2027.34 629.38, 2029.50 629.10, 2033.15 628.48 C 2036.80 627.86, 2038.38 627.68, 2040.94 626.75 C 2043.50 625.82, 2044.64 625.11, 2045.94 623.84 C 2047.24 622.57, 2047.53 621.82, 2047.46 620.39 C 2047.38 618.96, 2047.12 617.90, 2045.58 616.69 C 2044.04 615.47, 2042.53 614.61, 2039.76 614.33 C 2036.99 614.04, 2035.09 614.47, 2031.72 615.24 C 2028.35 616.02, 2026.24 616.59, 2022.89 618.18 C 2019.55 619.78, 2017.41 620.82, 2014.99 623.23 C 2012.57 625.63, 2011.54 627.25, 2010.81 630.19 C 2010.08 633.13, 2010.12 635.04, 2011.36 637.93 C 2012.60 640.82, 2013.89 642.21, 2017.02 644.66 C 2020.15 647.10, 2022.34 648.17, 2027.00 650.16 C 2031.66 652.14, 2034.49 653.04, 2040.30 654.58 C 2046.11 656.13, 2049.64 656.62, 2056.05 657.89 C 2062.46 659.16, 2065.99 659.76, 2072.35 660.93 C 2078.71 662.10, 2082.13 662.73, 2087.85 663.73 C 2093.58 664.74, 2096.62 665.10, 2100.98 665.94 C 2105.34 666.79, 2106.76 667.43, 2109.66 667.96 C 2112.57 668.49, 2114.26 668.77, 2115.51 668.59 C 2116.75 668.42, 2116.91 667.84, 2115.88 667.09 C 2114.85 666.35, 2113.25 665.67, 2110.37 664.88 C 2107.49 664.08, 2105.90 663.83, 2101.48 663.12 C 2097.06 662.40, 2094.00 662.20, 2088.25 661.31 C 2082.51 660.42, 2079.11 659.82, 2072.76 658.67 C 2066.42 657.52, 2062.88 656.90, 2056.53 655.57 C 2050.18 654.24, 2046.66 653.68, 2041.02 652.02 C 2035.37 650.36, 2032.62 649.34, 2028.29 647.28 C 2023.97 645.22, 2022.02 643.92, 2019.39 641.72 C 2016.76 639.52, 2016.08 638.37, 2015.15 636.28 C 2014.22 634.18, 2014.14 633.20, 2014.74 631.25 C 2015.33 629.31, 2016.09 628.30, 2018.10 626.55 C 2020.12 624.79, 2021.89 623.68, 2024.81 622.47 C 2027.74 621.25, 2029.81 620.93, 2032.74 620.47 C 2035.67 620.01, 2037.23 620.19, 2039.45 620.17 C 2041.67 620.15, 2042.66 620.28, 2043.84 620.35 C 2045.02 620.43, 2045.29 620.39, 2045.34 620.55 C 2045.38 620.71, 2045.21 620.70, 2044.05 621.16 C 2042.90 621.62, 2041.89 622.07, 2039.57 622.84 C 2037.26 623.60, 2035.91 624.23, 2032.47 625.01 C 2029.02 625.79, 2026.88 626.18, 2022.35 626.73 C 2017.82 627.28, 2014.87 627.60, 2009.80 627.76 C 2004.73 627.92, 2001.90 627.81, 1997.01 627.53 C 1992.11 627.24, 1989.58 626.90, 1985.32 626.35 C 1981.07 625.80, 1978.97 625.29, 1975.72 624.76 C 1972.47 624.24, 1971.23 623.68, 1969.09 623.72 C 1966.94 623.77, 1966.05 624.10, 1964.99 624.98 C 1963.93 625.86, 1963.84 626.54, 1963.80 628.13 C 1963.77 629.73, 1964.18 630.64, 1964.82 632.96 C 1965.45 635.28, 1966.19 636.94, 1966.96 639.74 C 1967.73 642.53, 1968.04 644.42, 1968.67 646.94 C 1969.31 649.46, 1969.64 650.81, 1970.16 652.34 C 1970.67 653.87, 1970.93 654.47, 1971.25 654.58 C 1971.57 654.69, 1971.81 654.09, 1971.74 652.87 C 1971.68 651.65, 1971.30 650.60, 1970.92 648.48 C 1970.54 646.36, 1970.39 644.79, 1969.85 642.27 C 1969.31 639.75, 1968.89 638.14, 1968.22 635.87 C 1967.54 633.61, 1967.18 632.51, 1966.48 630.96 C 1965.78 629.41, 1965.46 628.63, 1964.71 628.13 C 1963.95 627.63, 1963.25 627.73, 1962.71 628.47" style="stroke: black; fill: black;"/></svg>